<svg xmlns="http://www.w3.org/2000/svg" xmlns:xlink="http://www.w3.org/1999/xlink" width="20" height="20" viewBox="0 0 20 20" fill="none">
<path d="M0 10C0 10.1637 0.00401514 10.3272 0.0120454 10.4907C0.0200758 10.6541 0.0321115 10.8173 0.0481527 10.9802C0.0641939 11.143 0.0842215 11.3054 0.108235 11.4673C0.132248 11.6292 0.160219 11.7904 0.192147 11.9509C0.224074 12.1114 0.259922 12.2711 0.299687 12.4298C0.339453 12.5886 0.38309 12.7462 0.430596 12.9029C0.478103 13.0595 0.529424 13.2148 0.584559 13.3689C0.639693 13.523 0.698576 13.6756 0.761205 13.8268C0.823834 13.978 0.890135 14.1276 0.960107 14.2755C1.03008 14.4235 1.10364 14.5696 1.18079 14.714C1.25793 14.8583 1.33858 15.0006 1.42271 15.141C1.50685 15.2814 1.59438 15.4196 1.6853 15.5557C1.77623 15.6918 1.87044 15.8255 1.96793 15.957C2.06541 16.0884 2.16607 16.2174 2.2699 16.3439C2.37371 16.4704 2.48059 16.5943 2.59049 16.7156C2.70039 16.8369 2.8132 16.9554 2.92893 17.0711C3.04465 17.1868 3.16314 17.2996 3.28441 17.4095C3.40568 17.5194 3.52957 17.6263 3.65607 17.7301C3.78258 17.8339 3.91156 17.9346 4.04301 18.0321C4.17445 18.1295 4.30822 18.2238 4.4443 18.3147C4.58037 18.4056 4.71859 18.4931 4.85896 18.5773C4.99934 18.6614 5.1417 18.7421 5.28603 18.8192C5.43037 18.8964 5.5765 18.9699 5.72445 19.0399C5.8724 19.1099 6.02197 19.1762 6.17316 19.2388C6.32436 19.3014 6.47701 19.3603 6.63109 19.4154C6.78519 19.4706 6.94055 19.5219 7.09715 19.5693C7.25377 19.6168 7.41144 19.6605 7.57019 19.7004C7.72894 19.74 7.88857 19.776 8.0491 19.8078C8.20961 19.8396 8.3708 19.8678 8.53269 19.8918C8.69459 19.9158 8.85695 19.9357 9.01982 19.9518C9.18269 19.968 9.34586 19.9799 9.50932 19.9879C9.67277 19.9959 9.83635 20 10 20C10.1637 20 10.3272 19.9959 10.4907 19.9879C10.6541 19.9799 10.8173 19.968 10.9802 19.9518C11.143 19.9357 11.3054 19.9158 11.4673 19.8918C11.6292 19.8678 11.7904 19.8396 11.9509 19.8078C12.1114 19.776 12.2711 19.74 12.4298 19.7004C12.5886 19.6605 12.7462 19.6168 12.9029 19.5693C13.0595 19.5219 13.2148 19.4706 13.3689 19.4154C13.523 19.3603 13.6756 19.3014 13.8268 19.2388C13.978 19.1762 14.1276 19.1099 14.2755 19.0399C14.4235 18.9699 14.5696 18.8964 14.714 18.8192C14.8583 18.7421 15.0006 18.6614 15.141 18.5773C15.2814 18.4931 15.4196 18.4056 15.5557 18.3147C15.6918 18.2238 15.8255 18.1295 15.957 18.0321C16.0884 17.9346 16.2174 17.8339 16.3439 17.7301C16.4704 17.6263 16.5943 17.5194 16.7156 17.4095C16.8369 17.2996 16.9554 17.1868 17.0711 17.0711C17.1868 16.9554 17.2996 16.8369 17.4095 16.7156C17.5194 16.5943 17.6263 16.4704 17.7301 16.3439C17.8339 16.2174 17.9346 16.0884 18.0321 15.957C18.1295 15.8255 18.2238 15.6918 18.3147 15.5557C18.4056 15.4196 18.4931 15.2814 18.5773 15.141C18.6614 15.0006 18.7421 14.8583 18.8192 14.714C18.8964 14.5696 18.9699 14.4235 19.0399 14.2755C19.1099 14.1276 19.1762 13.978 19.2388 13.8268C19.3014 13.6756 19.3603 13.523 19.4154 13.3689C19.4706 13.2148 19.5219 13.0595 19.5693 12.9029C19.6168 12.7462 19.6605 12.5886 19.7004 12.4298C19.74 12.2711 19.776 12.1114 19.8078 11.9509C19.8396 11.7904 19.8678 11.6292 19.8918 11.4673C19.9158 11.3054 19.9357 11.143 19.9518 10.9802C19.968 10.8173 19.9799 10.6541 19.9879 10.4907C19.9959 10.3272 20 10.1637 20 10C20 9.83635 19.9959 9.67277 19.9879 9.50932C19.9799 9.34586 19.968 9.18269 19.9518 9.01982C19.9357 8.85695 19.9158 8.69459 19.8918 8.53269C19.8678 8.3708 19.8396 8.20961 19.8078 8.0491C19.776 7.88857 19.74 7.72894 19.7004 7.57019C19.6605 7.41144 19.6168 7.25377 19.5693 7.09715C19.5219 6.94055 19.4706 6.78519 19.4154 6.63109C19.3603 6.47701 19.3014 6.32435 19.2388 6.17316C19.1762 6.02197 19.1099 5.8724 19.0399 5.72445C18.9699 5.5765 18.8964 5.43037 18.8192 5.28603C18.7421 5.1417 18.6614 4.99934 18.5773 4.85896C18.4931 4.71859 18.4056 4.58037 18.3147 4.4443C18.2238 4.30822 18.1295 4.17445 18.0321 4.04301C17.9346 3.91156 17.8339 3.78258 17.7301 3.65607C17.6263 3.52957 17.5194 3.40568 17.4095 3.28441C17.2996 3.16314 17.1868 3.04465 17.0711 2.92893C16.9554 2.8132 16.8369 2.70039 16.7156 2.59049C16.5943 2.48059 16.4704 2.37371 16.3439 2.2699C16.2174 2.16607 16.0884 2.06541 15.957 1.96793C15.8255 1.87044 15.6918 1.77623 15.5557 1.6853C15.4196 1.59438 15.2814 1.50685 15.141 1.42271C15.0006 1.33858 14.8583 1.25793 14.714 1.18079C14.5696 1.10364 14.4235 1.03008 14.2755 0.960107C14.1276 0.890135 13.978 0.823834 13.8268 0.761205C13.6756 0.698576 13.523 0.639693 13.3689 0.584559C13.2148 0.529424 13.0595 0.478103 12.9029 0.430596C12.7462 0.38309 12.5886 0.339453 12.4298 0.299687C12.2711 0.259922 12.1114 0.224074 11.9509 0.192147C11.7904 0.160219 11.6292 0.132248 11.4673 0.108235C11.3054 0.0842215 11.143 0.0641939 10.9802 0.0481527C10.8173 0.0321115 10.6541 0.0200758 10.4907 0.0120454C10.3272 0.00401514 10.1637 0 10 0C9.83635 0 9.67277 0.00401514 9.50932 0.0120454C9.34586 0.0200758 9.18269 0.0321115 9.01982 0.0481527C8.85695 0.0641939 8.69459 0.0842215 8.53269 0.108235C8.3708 0.132248 8.20961 0.160219 8.0491 0.192147C7.88857 0.224074 7.72894 0.259922 7.57019 0.299687C7.41144 0.339453 7.25377 0.38309 7.09715 0.430596C6.94055 0.478103 6.78519 0.529424 6.63109 0.584559C6.47701 0.639693 6.32436 0.698576 6.17316 0.761205C6.02197 0.823834 5.8724 0.890135 5.72445 0.960107C5.5765 1.03008 5.43037 1.10364 5.28603 1.18079C5.1417 1.25793 4.99934 1.33858 4.85896 1.42271C4.71859 1.50685 4.58037 1.59438 4.4443 1.6853C4.30822 1.77623 4.17445 1.87044 4.04301 1.96793C3.91156 2.06541 3.78258 2.16607 3.65607 2.2699C3.52957 2.37371 3.40568 2.48059 3.28441 2.59049C3.16314 2.70039 3.04465 2.8132 2.92893 2.92893C2.8132 3.04465 2.70039 3.16314 2.59049 3.28441C2.48059 3.40568 2.37371 3.52957 2.2699 3.65607C2.16607 3.78258 2.06541 3.91156 1.96793 4.04301C1.87044 4.17445 1.77623 4.30822 1.6853 4.4443C1.59438 4.58037 1.50685 4.71859 1.42271 4.85896C1.33858 4.99934 1.25793 5.1417 1.18079 5.28603C1.10364 5.43037 1.03008 5.5765 0.960107 5.72445C0.890135 5.8724 0.823834 6.02197 0.761205 6.17316C0.698576 6.32435 0.639693 6.47701 0.584559 6.63109C0.529424 6.78519 0.478103 6.94055 0.430596 7.09715C0.38309 7.25377 0.339453 7.41144 0.299687 7.57019C0.259922 7.72894 0.224074 7.88857 0.192147 8.0491C0.160219 8.20961 0.132248 8.3708 0.108235 8.53269C0.0842215 8.69459 0.0641939 8.85695 0.0481527 9.01982C0.0321115 9.18269 0.0200758 9.34586 0.0120454 9.50932C0.00401514 9.67277 0 9.83635 0 10Z"   fill="#FFEFD7" >
</path>
<path d="M9.07728 15.1381L3.98581 9.53708C3.97326 9.52329 3.96103 9.50923 3.94911 9.49491C3.9372 9.48057 3.92561 9.46598 3.91435 9.45114C3.90307 9.43628 3.89214 9.4212 3.88155 9.40587C3.87095 9.39053 3.86071 9.37497 3.85081 9.35917C3.8409 9.34337 3.83136 9.32737 3.82218 9.31116C3.81299 9.29493 3.80416 9.27852 3.79571 9.26192C3.78726 9.2453 3.77918 9.22852 3.77148 9.21155C3.76377 9.19458 3.75644 9.17743 3.74948 9.16014C3.74254 9.14286 3.73599 9.12542 3.72984 9.10782C3.72366 9.09022 3.71789 9.07251 3.71251 9.05466C3.70713 9.03682 3.70216 9.01885 3.69759 9.00079C3.69301 8.98272 3.68883 8.96456 3.68507 8.94632C3.68131 8.92805 3.67795 8.90973 3.67499 8.89132C3.67205 8.87292 3.66951 8.85446 3.66737 8.83594C3.66525 8.81743 3.66354 8.79887 3.66224 8.78028C3.66094 8.76169 3.66005 8.74307 3.65958 8.72444C3.65911 8.70581 3.65905 8.68717 3.65941 8.66854C3.65977 8.64989 3.66054 8.63128 3.66173 8.61268C3.66293 8.59407 3.66453 8.57551 3.66653 8.55698C3.66855 8.53844 3.67098 8.51997 3.67382 8.50155C3.67667 8.48313 3.67993 8.46479 3.68359 8.44651C3.68723 8.42825 3.69129 8.41007 3.69577 8.39196C3.70024 8.37385 3.70511 8.35587 3.71038 8.338C3.71564 8.32012 3.72131 8.30237 3.72737 8.28473C3.73343 8.26712 3.73988 8.24964 3.74673 8.23229C3.75357 8.21497 3.76079 8.19778 3.76839 8.18077C3.77599 8.16376 3.78398 8.1469 3.79234 8.13024C3.80069 8.11358 3.80942 8.09712 3.81851 8.08085C3.8276 8.06458 3.83704 8.04852 3.84685 8.03266C3.85665 8.01682 3.86681 8.0012 3.87732 7.98579C3.88781 7.9704 3.89865 7.95524 3.90984 7.94032C3.92101 7.92542 3.93251 7.91075 3.94435 7.89635L6.25289 5.09147C6.26023 5.08259 6.2677 5.07381 6.27527 5.06512C6.28285 5.05645 6.29057 5.04788 6.29838 5.0394C6.30619 5.03094 6.31414 5.02258 6.32219 5.01434C6.33023 5.00609 6.33838 4.99795 6.34666 4.98993C6.35494 4.9819 6.36332 4.97399 6.37182 4.9662C6.38029 4.9584 6.38889 4.95072 6.3976 4.94317C6.40629 4.93561 6.4151 4.92817 6.424 4.92085C6.43291 4.91353 6.44191 4.90634 6.45102 4.89926C6.46012 4.89219 6.46932 4.88525 6.47861 4.87844C6.48789 4.87162 6.49727 4.86493 6.50676 4.85837C6.51623 4.85182 6.5258 4.84539 6.53545 4.83909C6.5451 4.8328 6.55484 4.82664 6.56467 4.82061C6.57447 4.81458 6.58437 4.80869 6.59437 4.80292C6.60435 4.79716 6.61441 4.79154 6.62457 4.78606C6.63469 4.78058 6.6449 4.77524 6.6552 4.77005C6.66547 4.76485 6.67584 4.75979 6.68627 4.75487C6.69668 4.74996 6.70717 4.74519 6.71773 4.74055C6.72828 4.73593 6.73891 4.73145 6.74959 4.72712C6.76025 4.72278 6.771 4.71859 6.7818 4.71456C6.79258 4.71051 6.80344 4.70661 6.81434 4.70288C6.82523 4.69913 6.83617 4.69553 6.84719 4.6921C6.85818 4.68866 6.86922 4.68537 6.88031 4.68223C6.89141 4.67908 6.90254 4.67609 6.91371 4.67327C6.92488 4.67043 6.93609 4.66775 6.94734 4.66522C6.95857 4.6627 6.96984 4.66033 6.98117 4.65811C6.99246 4.6559 7.00381 4.65384 7.01518 4.65194C7.02654 4.65004 7.03793 4.64829 7.04936 4.64669C7.06076 4.6451 7.07221 4.64367 7.08365 4.64239C7.0951 4.64111 7.10658 4.63999 7.11807 4.63903C7.12955 4.63807 7.14104 4.63727 7.15256 4.63663C7.16406 4.63598 7.17557 4.63549 7.18709 4.63516C7.19861 4.63482 7.21014 4.63465 7.22166 4.63464L12.689 4.63464C12.7004 4.63464 12.7119 4.63479 12.7234 4.6351C12.7348 4.63542 12.7463 4.63589 12.7578 4.63653C12.7692 4.63716 12.7806 4.63794 12.7921 4.63887C12.8035 4.63981 12.8149 4.64091 12.8263 4.64218C12.8377 4.64342 12.8491 4.64484 12.8604 4.64641C12.8718 4.64798 12.8831 4.64969 12.8944 4.65157C12.9057 4.65344 12.917 4.65548 12.9283 4.65766C12.9395 4.65985 12.9508 4.66219 12.962 4.66469C12.9731 4.66719 12.9843 4.66984 12.9954 4.67264C13.0065 4.67544 13.0176 4.6784 13.0287 4.68151C13.0397 4.68461 13.0507 4.68787 13.0616 4.69128C13.0726 4.69469 13.0835 4.69825 13.0943 4.70196C13.1052 4.70566 13.116 4.70951 13.1267 4.71352C13.1375 4.71752 13.1482 4.72167 13.1588 4.72596C13.1694 4.73026 13.18 4.7347 13.1905 4.73928C13.201 4.74388 13.2114 4.74861 13.2218 4.75348C13.2322 4.75835 13.2425 4.76337 13.2528 4.76852C13.263 4.77368 13.2732 4.77898 13.2833 4.78442C13.2934 4.78985 13.3034 4.79542 13.3133 4.80114C13.3233 4.80684 13.3331 4.81269 13.3429 4.81868C13.3527 4.82466 13.3624 4.83077 13.372 4.83702C13.3816 4.84326 13.3912 4.84963 13.4006 4.85614C13.41 4.86265 13.4194 4.86929 13.4287 4.87606C13.4379 4.88282 13.4471 4.88971 13.4561 4.89673C13.4652 4.90374 13.4742 4.91089 13.483 4.91815C13.4919 4.92542 13.5007 4.9328 13.5094 4.9403C13.518 4.9478 13.5266 4.95542 13.5351 4.96317C13.5435 4.97091 13.5519 4.97876 13.5601 4.98673C13.5684 4.99469 13.5765 5.00277 13.5845 5.01096C13.5925 5.01915 13.6004 5.02745 13.6083 5.03587C13.616 5.04428 13.6237 5.05279 13.6313 5.06141C13.6388 5.07002 13.6463 5.07874 13.6536 5.08757L16.0297 7.94343C16.0417 7.95784 16.0533 7.97251 16.0646 7.98745C16.0759 8.00239 16.0869 8.01758 16.0975 8.033C16.1081 8.04842 16.1184 8.06409 16.1283 8.07999C16.1382 8.09587 16.1478 8.11198 16.157 8.12829C16.1662 8.1446 16.175 8.16112 16.1835 8.17782C16.1919 8.19454 16.2 8.21143 16.2077 8.2285C16.2154 8.24557 16.2228 8.2628 16.2297 8.2802C16.2366 8.2976 16.2432 8.31516 16.2493 8.33286C16.2555 8.35053 16.2612 8.36837 16.2666 8.38632C16.2719 8.40426 16.2769 8.42231 16.2814 8.4405C16.286 8.45868 16.2901 8.47694 16.2938 8.49528C16.2975 8.51364 16.3009 8.53208 16.3038 8.55057C16.3067 8.56909 16.3092 8.58764 16.3112 8.60626C16.3133 8.62487 16.315 8.64352 16.3162 8.66221C16.3174 8.68091 16.3183 8.69962 16.3187 8.71835C16.319 8.73708 16.319 8.75581 16.3186 8.77454C16.3182 8.79327 16.3173 8.81196 16.316 8.83065C16.3147 8.84934 16.3131 8.868 16.311 8.88661C16.3088 8.90522 16.3063 8.92378 16.3034 8.94227C16.3004 8.96077 16.2971 8.97921 16.2933 8.99755C16.2896 9.01589 16.2854 9.03415 16.2808 9.05231C16.2762 9.07048 16.2712 9.08852 16.2659 9.10645C16.2605 9.1244 16.2547 9.14221 16.2485 9.15989C16.2423 9.17757 16.2357 9.1951 16.2287 9.21249C16.2218 9.22987 16.2144 9.2471 16.2067 9.26415C16.1989 9.2812 16.1908 9.29809 16.1823 9.31479C16.1738 9.33149 16.165 9.34798 16.1557 9.36426C16.1465 9.38057 16.1369 9.39665 16.127 9.41251C16.117 9.42839 16.1067 9.44401 16.0961 9.45942C16.0854 9.47483 16.0744 9.49001 16.0631 9.50491C16.0517 9.51983 16.0401 9.53448 16.0281 9.54887C16.0161 9.56327 16.0038 9.57737 15.9912 9.59122L10.9326 15.1395C10.9179 15.1556 10.9029 15.1712 10.8874 15.1865C10.8719 15.2018 10.856 15.2166 10.8398 15.2311C10.8235 15.2455 10.8069 15.2596 10.7899 15.2731C10.7729 15.2867 10.7556 15.2999 10.7379 15.3125C10.7203 15.3252 10.7023 15.3374 10.684 15.3492C10.6656 15.3609 10.6471 15.3722 10.6282 15.383C10.6093 15.3938 10.5901 15.404 10.5707 15.4138C10.5513 15.4236 10.5316 15.4329 10.5117 15.4416C10.4918 15.4504 10.4717 15.4587 10.4513 15.4664C10.431 15.4741 10.4105 15.4813 10.3898 15.4879C10.3691 15.4946 10.3482 15.5007 10.3272 15.5063C10.3062 15.5118 10.285 15.5168 10.2637 15.5213C10.2424 15.5258 10.2211 15.5297 10.1996 15.5331C10.1781 15.5364 10.1565 15.5392 10.1349 15.5415C10.1132 15.5437 10.0916 15.5454 10.0698 15.5465C10.0481 15.5476 10.0264 15.5482 10.0046 15.5481C9.98287 15.5481 9.96115 15.5475 9.93943 15.5464C9.91771 15.5452 9.89603 15.5435 9.87441 15.5413C9.85277 15.539 9.83121 15.5362 9.80973 15.5328C9.78824 15.5294 9.76686 15.5254 9.74559 15.5209C9.7243 15.5164 9.70316 15.5114 9.68215 15.5057C9.66113 15.5001 9.64027 15.494 9.61957 15.4873C9.59887 15.4806 9.57836 15.4734 9.55805 15.4657C9.53771 15.4579 9.51762 15.4497 9.49773 15.4408C9.47783 15.432 9.45818 15.4227 9.43879 15.4129C9.41937 15.4031 9.40023 15.3928 9.38137 15.382C9.36248 15.3712 9.34391 15.3599 9.32562 15.3481C9.30732 15.3363 9.28935 15.3241 9.27172 15.3114C9.25406 15.2987 9.23676 15.2855 9.2198 15.2719C9.20283 15.2583 9.18623 15.2442 9.17 15.2298C9.15375 15.2153 9.13791 15.2004 9.12244 15.1851C9.10697 15.1698 9.09193 15.1541 9.07728 15.1381Z"   fill="#FF8E12" >
</path>
<path d="M3.98486 9.53659C3.97232 9.5228 3.96009 9.50874 3.94818 9.4944C3.93628 9.48009 3.9247 9.4655 3.91344 9.45063C3.90217 9.43579 3.89125 9.42069 3.88066 9.40536C3.87008 9.39003 3.85984 9.37446 3.84996 9.35866C3.84006 9.34286 3.83053 9.32686 3.82135 9.31065C3.81217 9.29442 3.80336 9.27802 3.79492 9.26139C3.78647 9.24477 3.7784 9.22799 3.7707 9.21102C3.76301 9.19405 3.75569 9.1769 3.74877 9.15962C3.74183 9.14231 3.73528 9.12487 3.72914 9.10729C3.72298 9.08969 3.71722 9.07198 3.71185 9.05413C3.70649 9.03628 3.70153 9.01833 3.69697 9.00026C3.6924 8.98219 3.68824 8.96403 3.68449 8.94577C3.68074 8.92751 3.67739 8.90919 3.67445 8.89079C3.67152 8.87239 3.669 8.85393 3.66689 8.83542C3.66478 8.8169 3.66308 8.79835 3.66179 8.77975C3.66051 8.76116 3.65963 8.74255 3.65918 8.72393C3.65874 8.7053 3.6587 8.68667 3.65906 8.66803C3.65944 8.6494 3.66023 8.63079 3.66144 8.61219C3.66265 8.5936 3.66428 8.57505 3.66631 8.55651C3.66834 8.53798 3.67079 8.51952 3.67365 8.5011C3.6765 8.48268 3.67977 8.46434 3.68345 8.44608C3.68713 8.42782 3.69121 8.40964 3.6957 8.39155C3.70018 8.37346 3.70507 8.35548 3.71037 8.3376C3.71566 8.31973 3.72134 8.302 3.72742 8.28438C3.7335 8.26676 3.73997 8.24928 3.74683 8.23196C3.75368 8.21464 3.76092 8.19749 3.76855 8.18048C3.77618 8.16346 3.78418 8.14665 3.79256 8.12999C3.80093 8.11335 3.80967 8.0969 3.81879 8.08065C3.8279 8.06438 3.83737 8.04835 3.84719 8.03251C3.85702 8.01667 3.86719 8.00106 3.87771 7.98569C3.88823 7.9703 3.89909 7.95516 3.91029 7.94026C3.92149 7.92536 3.93301 7.91073 3.94486 7.89635L6.25291 5.09147C6.26026 5.08259 6.26772 5.07381 6.2753 5.06512C6.28288 5.05645 6.29057 5.04788 6.29838 5.03942C6.3062 5.03096 6.31413 5.0226 6.32217 5.01434C6.33022 5.0061 6.33836 4.99797 6.34665 4.98995C6.35491 4.98191 6.36329 4.97401 6.37178 4.96622C6.38026 4.95842 6.38885 4.95074 6.39754 4.94319C6.40624 4.93563 6.41504 4.92818 6.42395 4.92087C6.43284 4.91355 6.44184 4.90635 6.45094 4.89928C6.46004 4.89221 6.46922 4.88527 6.47852 4.87846C6.4878 4.87164 6.49717 4.86495 6.50666 4.85839C6.51612 4.85182 6.52569 4.84539 6.53534 4.83909C6.54498 4.8328 6.55471 4.82663 6.56454 4.82059C6.57434 4.81456 6.58424 4.80867 6.59422 4.80292C6.60418 4.79715 6.61424 4.79152 6.6244 4.78604C6.63452 4.78056 6.64473 4.77522 6.655 4.77001C6.66528 4.76481 6.67563 4.75975 6.68606 4.75483C6.69647 4.74991 6.70696 4.74513 6.7175 4.7405C6.72805 4.73586 6.73866 4.73137 6.74934 4.72704C6.76 4.72269 6.77075 4.7185 6.78153 4.71446C6.79231 4.71041 6.80315 4.70651 6.81405 4.70276C6.82495 4.69901 6.83588 4.69541 6.84688 4.69196C6.85788 4.68851 6.86891 4.68521 6.88 4.68206C6.89108 4.67891 6.90221 4.67591 6.91338 4.67307C6.92454 4.67023 6.93573 4.66755 6.94698 4.66501C6.95823 4.66248 6.9695 4.6601 6.98081 4.65788C6.99209 4.65565 7.00344 4.65358 7.01481 4.65167C7.02616 4.64975 7.03754 4.648 7.04895 4.64639C7.06036 4.64479 7.0718 4.64335 7.08325 4.64206C7.09469 4.64077 7.10616 4.63964 7.11764 4.63866C7.12913 4.63768 7.14061 4.63687 7.15211 4.63622C7.16362 4.63555 7.17512 4.63505 7.18665 4.63471C7.19817 4.63436 7.20967 4.63417 7.2212 4.63415L12.689 4.63415C12.7005 4.63416 12.7119 4.63432 12.7234 4.63464C12.7349 4.63496 12.7463 4.63544 12.7578 4.63606C12.7692 4.6367 12.7807 4.63749 12.7921 4.63844C12.8035 4.63938 12.8149 4.64048 12.8264 4.64175C12.8378 4.64301 12.8491 4.64442 12.8605 4.64598C12.8719 4.64756 12.8832 4.64929 12.8945 4.65118C12.9058 4.65305 12.9171 4.65509 12.9284 4.65727C12.9396 4.65947 12.9508 4.66182 12.9621 4.6643C12.9732 4.6668 12.9844 4.66946 12.9955 4.67227C13.0066 4.67507 13.0177 4.67803 13.0288 4.68114C13.0398 4.68424 13.0508 4.68749 13.0618 4.69091C13.0727 4.69432 13.0836 4.69788 13.0945 4.70159C13.1053 4.7053 13.1161 4.70915 13.1269 4.71315C13.1376 4.71716 13.1483 4.72132 13.1589 4.72561C13.1696 4.72991 13.1802 4.73435 13.1907 4.73893C13.2012 4.74352 13.2116 4.74824 13.222 4.75311C13.2324 4.758 13.2427 4.76301 13.253 4.76817C13.2632 4.77333 13.2734 4.77862 13.2835 4.78405C13.2936 4.78948 13.3036 4.79505 13.3136 4.80077C13.3235 4.80647 13.3334 4.81231 13.3432 4.81829C13.3529 4.82428 13.3626 4.83039 13.3723 4.83663C13.3819 4.84288 13.3914 4.84926 13.4009 4.85577C13.4103 4.86227 13.4197 4.8689 13.4289 4.87567C13.4382 4.88243 13.4474 4.88932 13.4564 4.89634C13.4655 4.90334 13.4745 4.91048 13.4834 4.91774C13.4923 4.92499 13.501 4.93237 13.5097 4.93987C13.5184 4.94737 13.527 4.95499 13.5354 4.96274C13.5439 4.97048 13.5523 4.97832 13.5605 4.98628C13.5688 4.99425 13.5769 5.00232 13.5849 5.01051C13.593 5.0187 13.6009 5.027 13.6087 5.0354C13.6165 5.0438 13.6242 5.05231 13.6318 5.06093C13.6393 5.06954 13.6468 5.07826 13.6541 5.08708L14.5561 6.17073C14.5634 6.31844 14.5672 6.46623 14.5674 6.61411C14.5677 6.76198 14.5645 6.90979 14.5578 7.05753C14.5511 7.20524 14.5409 7.35274 14.5272 7.49999C14.5134 7.64723 14.4963 7.79407 14.4756 7.9405C14.4624 8.03749 14.4477 8.13424 14.4314 8.23075C14.4151 8.32725 14.3973 8.42348 14.3779 8.51944C14.3585 8.61538 14.3376 8.71098 14.3151 8.80626C14.2927 8.90151 14.2687 8.99639 14.2432 9.09091C14.2177 9.18542 14.1907 9.27948 14.1622 9.37311C14.1337 9.46673 14.1036 9.55987 14.0721 9.65255C14.0406 9.74522 14.0076 9.83735 13.9731 9.92897C13.9387 10.0206 13.9027 10.1116 13.8654 10.2021C13.828 10.2925 13.7891 10.3824 13.7488 10.4715C13.7086 10.5607 13.6669 10.6493 13.6237 10.7372C13.5806 10.825 13.5361 10.9122 13.4902 10.9986C13.4442 11.085 13.3969 11.1707 13.3482 11.2557C13.2996 11.3406 13.2495 11.4247 13.1982 11.508C13.1468 11.5913 13.0941 11.6738 13.0401 11.7554C12.986 11.837 12.9307 11.9177 12.8741 11.9976C12.8175 12.0774 12.7596 12.1563 12.7004 12.2343C12.6413 12.3123 12.5809 12.3893 12.5193 12.4654C12.4576 12.5414 12.3948 12.6164 12.3308 12.6905C12.2667 12.7645 12.2015 12.8374 12.1351 12.9094C12.0687 12.9813 12.0012 13.0522 11.9326 13.1219C11.8639 13.1917 11.7941 13.2603 11.7233 13.3278C11.6524 13.3954 11.5805 13.4617 11.5075 13.5269C11.4345 13.5921 11.3605 13.6562 11.2854 13.719C11.2104 13.7818 11.1343 13.8434 11.0573 13.9038C10.9803 13.9642 10.9023 14.0233 10.8234 14.0812C10.7444 14.1391 10.6646 14.1957 10.5839 14.251C10.5031 14.3064 10.4215 14.3604 10.339 14.4131C10.2565 14.4658 10.1732 14.5171 10.0891 14.5672C10.005 14.6172 9.92006 14.6658 9.83436 14.7131C9.74866 14.7604 9.66223 14.8064 9.57506 14.8509C9.4879 14.8954 9.40004 14.9385 9.31149 14.9802C9.22293 15.0219 9.13374 15.0622 9.04389 15.101L3.98486 9.53659Z"   fill="#FCA315" >
</path>
<path d="M3.98535 9.53659C3.9728 9.52278 3.96057 9.50872 3.94865 9.49438C3.93674 9.48003 3.92515 9.46542 3.91389 9.45055C3.90263 9.43569 3.8917 9.42059 3.88112 9.40524C3.87053 9.38989 3.86029 9.3743 3.85039 9.3585C3.8405 9.3427 3.83096 9.32669 3.82178 9.31046C3.81259 9.29423 3.80377 9.2778 3.79533 9.26118C3.78688 9.24456 3.7788 9.22774 3.7711 9.21075C3.7634 9.19378 3.75608 9.17663 3.74914 9.15932C3.74222 9.142 3.73567 9.12454 3.72951 9.10694C3.72336 9.08934 3.71759 9.07161 3.71223 9.05376C3.70686 9.03588 3.7019 9.01792 3.69733 8.99985C3.69277 8.98176 3.68862 8.96358 3.68487 8.94532C3.6811 8.92706 3.67776 8.90872 3.67483 8.8903C3.67188 8.87188 3.66936 8.85342 3.66725 8.83489C3.66514 8.81635 3.66344 8.7978 3.66215 8.77919C3.66086 8.76057 3.66 8.74196 3.65955 8.72331C3.6591 8.70465 3.65906 8.68602 3.65944 8.66739C3.65981 8.64874 3.6606 8.63012 3.6618 8.61151C3.66301 8.5929 3.66463 8.57432 3.66666 8.55579C3.66871 8.53725 3.67116 8.51876 3.67401 8.50034C3.67687 8.48192 3.68015 8.46356 3.68383 8.44528C3.6875 8.427 3.69158 8.40882 3.69608 8.39071C3.70057 8.3726 3.70546 8.3546 3.71074 8.33673C3.71603 8.31885 3.72172 8.3011 3.72782 8.28346C3.7339 8.26583 3.74037 8.24835 3.74723 8.231C3.75409 8.21368 3.76134 8.19649 3.76897 8.17948C3.7766 8.16247 3.7846 8.14563 3.79297 8.12897C3.80136 8.11231 3.81011 8.09585 3.81922 8.07958C3.82834 8.06331 3.83781 8.04723 3.84764 8.03139C3.85747 8.01555 3.86765 7.99993 3.87817 7.98454C3.8887 7.96915 3.89957 7.95399 3.91076 7.93909C3.92196 7.92419 3.93349 7.90952 3.94535 7.89512L6.2534 5.09024C6.26072 5.08136 6.26818 5.07258 6.27574 5.06389C6.28332 5.05522 6.29102 5.04665 6.29883 5.03817C6.30662 5.02971 6.31455 5.02135 6.3226 5.01309C6.33062 5.00484 6.33879 4.9967 6.34705 4.98868C6.35531 4.98066 6.36367 4.97275 6.37217 4.96495C6.38064 4.95715 6.38924 4.94947 6.39793 4.94192C6.40662 4.93436 6.41541 4.92692 6.42432 4.9196C6.4332 4.91228 6.44221 4.90509 6.45129 4.89802C6.46039 4.89096 6.46959 4.88402 6.47887 4.87719C6.48814 4.87038 6.49754 4.8637 6.50701 4.85714C6.51648 4.85059 6.52603 4.84416 6.53568 4.83786C6.54533 4.83157 6.55506 4.82541 6.56488 4.81938C6.57471 4.81335 6.58461 4.80747 6.59459 4.80173C6.60457 4.79597 6.61463 4.79035 6.62477 4.78487C6.6349 4.7794 6.6451 4.77407 6.65539 4.76887C6.66566 4.76368 6.67602 4.75863 6.68645 4.75372C6.69686 4.74881 6.70734 4.74404 6.71791 4.73942C6.72846 4.7348 6.73906 4.73033 6.74975 4.726C6.76043 4.72168 6.77115 4.7175 6.78195 4.71346C6.79273 4.70943 6.80357 4.70555 6.81447 4.70182C6.82537 4.69809 6.83633 4.69451 6.84732 4.69108C6.85832 4.68764 6.86936 4.68436 6.88045 4.68124C6.89152 4.67811 6.90266 4.67514 6.91383 4.67231C6.925 4.6695 6.93621 4.66684 6.94744 4.66432C6.95869 4.66181 6.96996 4.65945 6.98127 4.65725C6.99258 4.65505 7.00393 4.65301 7.01527 4.65112C7.02664 4.64923 7.03803 4.6475 7.04943 4.64593C7.06086 4.64435 7.07228 4.64293 7.08373 4.64167C7.09519 4.64042 7.10666 4.63932 7.11812 4.63837C7.12961 4.63743 7.14111 4.63664 7.15262 4.636C7.16412 4.63538 7.17562 4.63491 7.18713 4.6346C7.19865 4.6343 7.21018 4.63415 7.22168 4.63415L12.1307 4.63415C12.1551 4.87366 12.1661 5.11757 12.1661 5.36342C12.1661 5.46422 12.164 5.56497 12.16 5.66569C12.1559 5.76641 12.1499 5.867 12.1418 5.96747C12.1337 6.06794 12.1236 6.1682 12.1115 6.26827C12.0994 6.36833 12.0853 6.46812 12.0692 6.56762C12.053 6.66714 12.035 6.76626 12.0149 6.86503C11.9948 6.9638 11.9727 7.06214 11.9487 7.16003C11.9246 7.25792 11.8987 7.35528 11.8707 7.45214C11.8428 7.54899 11.8129 7.64524 11.7811 7.74089C11.7493 7.83653 11.7156 7.93151 11.68 8.02581C11.6444 8.1201 11.6069 8.21364 11.5676 8.30643C11.5282 8.39923 11.487 8.4912 11.444 8.58235C11.4009 8.67348 11.3561 8.76372 11.3094 8.85307C11.2627 8.94241 11.2143 9.03079 11.1641 9.11819C11.1139 9.20559 11.0619 9.29194 11.0082 9.37725C10.9546 9.46256 10.8992 9.54676 10.8421 9.62987C10.7851 9.71297 10.7264 9.79489 10.6661 9.87563C10.6057 9.95635 10.5438 10.0359 10.4803 10.1141C10.4167 10.1924 10.3517 10.2693 10.285 10.345C10.2184 10.4206 10.1503 10.4949 10.0807 10.5678C10.0111 10.6407 9.94012 10.7122 9.86766 10.7823C9.79518 10.8524 9.72135 10.9209 9.64613 10.988C9.57092 11.0551 9.49439 11.1207 9.41654 11.1848C9.33871 11.2488 9.25961 11.3112 9.17926 11.3721C9.09892 11.433 9.01738 11.4922 8.93467 11.5498C8.85193 11.6074 8.76809 11.6633 8.68312 11.7175C8.59816 11.7717 8.51215 11.8242 8.42508 11.875C8.33799 11.9258 8.24994 11.9748 8.1609 12.022C8.07186 12.0693 7.98191 12.1147 7.89105 12.1584C7.80019 12.202 7.7085 12.2438 7.61596 12.2838C7.52342 12.3237 7.43012 12.3618 7.33605 12.398C7.24199 12.4342 7.14725 12.4686 7.0518 12.501C6.95635 12.5334 6.86029 12.5639 6.76363 12.5924L3.98535 9.53659Z"   fill="#FCB138" >
</path>
<path d="M3.94582 9.49268C3.93434 9.47878 3.92317 9.46464 3.9123 9.45024C3.90144 9.43585 3.89089 9.42122 3.88066 9.40637C3.87042 9.39153 3.86052 9.37647 3.85093 9.3612C3.84135 9.34592 3.8321 9.33046 3.8232 9.31477C3.81428 9.29909 3.80571 9.28323 3.79748 9.26719C3.78923 9.25116 3.78135 9.23495 3.77382 9.21856C3.76628 9.20218 3.7591 9.18565 3.75228 9.16895C3.74547 9.15225 3.73901 9.13542 3.73291 9.11844C3.72681 9.10147 3.72109 9.08438 3.71574 9.06717C3.71037 9.04995 3.70539 9.03262 3.70078 9.0152C3.69617 8.99776 3.69194 8.98024 3.68808 8.96262C3.68423 8.94501 3.68075 8.92731 3.67765 8.90956C3.67457 8.8918 3.67186 8.87397 3.66953 8.85608C3.6672 8.83821 3.66526 8.82028 3.66371 8.80231C3.66216 8.78436 3.66099 8.76637 3.66021 8.74835C3.65944 8.73032 3.65906 8.71231 3.65906 8.69428C3.65906 8.67626 3.65944 8.65823 3.66021 8.6402C3.66099 8.62219 3.66216 8.60421 3.66371 8.58624C3.66526 8.56827 3.6672 8.55034 3.66953 8.53247C3.67186 8.5146 3.67457 8.49677 3.67765 8.47899C3.68075 8.46124 3.68423 8.44354 3.68808 8.42592C3.69194 8.40831 3.69617 8.39079 3.70078 8.37337C3.70539 8.35592 3.71037 8.3386 3.71574 8.32137C3.72109 8.30417 3.72681 8.28708 3.73291 8.2701C3.73901 8.25313 3.74547 8.2363 3.75228 8.2196C3.7591 8.20292 3.76628 8.18637 3.77382 8.16999C3.78135 8.1536 3.78923 8.13739 3.79748 8.12135C3.80571 8.10532 3.81428 8.08946 3.8232 8.07378C3.8321 8.05811 3.84135 8.04264 3.85093 8.02735C3.86052 8.01208 3.87042 7.99702 3.88066 7.98217C3.89089 7.96733 3.90144 7.9527 3.9123 7.93831C3.92317 7.92391 3.93434 7.90977 3.94582 7.89587L6.25386 5.09098C6.26119 5.0821 6.26863 5.07333 6.27619 5.06466C6.28374 5.05597 6.29144 5.0474 6.29923 5.03893C6.30703 5.03047 6.31496 5.02212 6.32298 5.01387C6.33101 5.00562 6.33914 4.99748 6.3474 4.98946C6.35566 4.98144 6.36402 4.97353 6.37249 4.96573C6.38095 4.95794 6.38953 4.95027 6.39822 4.94272C6.40691 4.93516 6.4157 4.92772 6.42458 4.92042C6.43347 4.9131 6.44246 4.90591 6.45154 4.89884C6.46062 4.89176 6.4698 4.88483 6.47908 4.87802C6.48835 4.8712 6.49773 4.86452 6.5072 4.85796C6.51665 4.85141 6.52621 4.84498 6.53583 4.83868C6.54548 4.83239 6.55521 4.82623 6.56501 4.8202C6.57482 4.81419 6.5847 4.8083 6.59468 4.80255C6.60464 4.79679 6.61468 4.79117 6.62482 4.78569C6.63494 4.78022 6.64513 4.77489 6.65541 4.76969C6.66568 4.7645 6.67603 4.75944 6.68644 4.75452C6.69685 4.74961 6.70732 4.74484 6.71787 4.74022C6.72839 4.7356 6.739 4.73112 6.74966 4.72678C6.76033 4.72246 6.77105 4.71828 6.78183 4.71425C6.79261 4.71021 6.80345 4.70632 6.81433 4.70259C6.82521 4.69885 6.83615 4.69526 6.84714 4.69182C6.85814 4.68839 6.86915 4.6851 6.88023 4.68198C6.8913 4.67884 6.90244 4.67586 6.91359 4.67303C6.92474 4.67021 6.93595 4.66754 6.94718 4.66503C6.95841 4.6625 6.96966 4.66014 6.98097 4.65794C6.99226 4.65572 7.00359 4.65367 7.01494 4.65176C7.02628 4.64988 7.03767 4.64814 7.04908 4.64655C7.06048 4.64497 7.07191 4.64355 7.08333 4.64227C7.09478 4.64101 7.10624 4.6399 7.11771 4.63895C7.12917 4.638 7.14066 4.63721 7.15214 4.63657C7.16365 4.63593 7.17515 4.63545 7.18666 4.63512C7.19816 4.63481 7.20966 4.63465 7.22117 4.63464L9.47019 4.63464C9.46271 4.71674 9.45331 4.79863 9.44205 4.8803C9.43076 4.96197 9.41759 5.04333 9.40255 5.1244C9.38749 5.20546 9.3706 5.28613 9.35183 5.36641C9.33306 5.44669 9.31244 5.52649 9.28996 5.60583C9.26749 5.68515 9.24322 5.76391 9.2171 5.84212C9.19099 5.92032 9.1631 5.99788 9.13339 6.07479C9.10371 6.15171 9.07224 6.22789 9.03902 6.30335C9.00579 6.3788 8.97085 6.45345 8.93419 6.52729C8.89753 6.60114 8.85917 6.67409 8.81911 6.74616C8.77908 6.81821 8.7374 6.88932 8.69406 6.95946C8.65072 7.0296 8.60579 7.0987 8.55925 7.16676C8.51273 7.23483 8.46466 7.30176 8.41503 7.3676C8.3654 7.43344 8.31427 7.49811 8.26167 7.56157C8.20906 7.62505 8.15499 7.68727 8.09951 7.74825C8.04402 7.80923 7.98714 7.86889 7.92888 7.92723C7.87062 7.98557 7.81105 8.04253 7.75017 8.09813C7.68929 8.15372 7.62714 8.20786 7.56376 8.26057C7.50037 8.31329 7.4358 8.36452 7.37003 8.41425C7.30427 8.46397 7.2374 8.51216 7.16941 8.5588C7.10142 8.60542 7.03238 8.65046 6.96232 8.69391C6.89224 8.73735 6.82121 8.77915 6.74919 8.8193C6.67718 8.85946 6.60429 8.89794 6.53052 8.93471C6.45673 8.97151 6.38214 9.00657 6.30673 9.03991C6.23132 9.07325 6.15519 9.10481 6.07833 9.13464C6.00146 9.16446 5.92394 9.19247 5.8458 9.2187C5.76763 9.24493 5.6889 9.26934 5.6096 9.29194C5.53032 9.31452 5.45056 9.33526 5.37031 9.35417C5.29005 9.37305 5.2094 9.3901 5.12837 9.40528C5.04733 9.42046 4.96599 9.43374 4.88433 9.44514C4.80268 9.45655 4.7208 9.46606 4.63871 9.47368C4.55662 9.48132 4.4744 9.48704 4.39205 9.49085C4.30969 9.49466 4.22729 9.49657 4.14484 9.49659C4.07826 9.49659 4.01191 9.49512 3.94582 9.49268Z"   fill="#FFC65E" >
</path>
<path d="M9.93923 12.1676L9.9363 12.1676C9.92449 12.1675 9.91269 12.1672 9.90091 12.1665C9.88912 12.1659 9.87736 12.165 9.86562 12.1638C9.85386 12.1626 9.84216 12.1611 9.8305 12.1593C9.81882 12.1575 9.80722 12.1554 9.79566 12.153C9.7841 12.1507 9.77259 12.148 9.76117 12.1451C9.74972 12.1422 9.73835 12.1389 9.72709 12.1354C9.7158 12.132 9.70462 12.1282 9.69355 12.1242C9.68246 12.1201 9.67146 12.1158 9.6606 12.1112C9.6497 12.1066 9.63894 12.1018 9.62831 12.0967C9.61767 12.0915 9.60716 12.0862 9.59681 12.0805C9.58642 12.0749 9.57621 12.069 9.56613 12.0629C9.55605 12.0567 9.54613 12.0503 9.53636 12.0437C9.5266 12.0371 9.51699 12.0302 9.50755 12.0231C9.49812 12.016 9.48888 12.0087 9.47982 12.0011C9.47076 11.9936 9.46187 11.9858 9.4532 11.9778C9.44451 11.9698 9.43603 11.9616 9.42777 11.9532L6.79067 9.26658C6.78269 9.25818 6.77492 9.2496 6.76735 9.24082C6.75978 9.23203 6.75242 9.22307 6.74528 9.21393C6.73815 9.2048 6.73124 9.1955 6.72456 9.18602C6.71787 9.17655 6.71142 9.16692 6.70521 9.15713C6.699 9.14734 6.69302 9.1374 6.68728 9.12732C6.68155 9.11726 6.67607 9.10705 6.67083 9.0967C6.6656 9.08636 6.66061 9.0759 6.65587 9.06531C6.65114 9.05473 6.64668 9.04403 6.64247 9.03322C6.63827 9.02243 6.63432 9.01153 6.63064 9.00053C6.62696 8.98954 6.62355 8.97846 6.6204 8.9673C6.61726 8.95615 6.6144 8.94492 6.61181 8.93361C6.6092 8.92231 6.60688 8.91096 6.60484 8.89955C6.60279 8.88813 6.60103 8.87667 6.59954 8.86518C6.59806 8.85368 6.59685 8.84216 6.59593 8.8306C6.59499 8.81904 6.59434 8.80747 6.59398 8.79588C6.59361 8.78429 6.59353 8.7727 6.59374 8.76111C6.59394 8.74953 6.59441 8.73794 6.59517 8.72637C6.59594 8.7148 6.59698 8.70326 6.59829 8.69174C6.59962 8.68021 6.60122 8.66874 6.6031 8.6573C6.60497 8.64586 6.60713 8.63447 6.60956 8.62314C6.612 8.6118 6.6147 8.60053 6.61769 8.58934C6.62067 8.57812 6.62392 8.567 6.62743 8.55596C6.63095 8.5449 6.63474 8.53395 6.6388 8.52309C6.64285 8.51223 6.64716 8.50147 6.65173 8.49082C6.65631 8.48017 6.66114 8.46964 6.66622 8.45922C6.67131 8.4488 6.67665 8.43851 6.68224 8.42834C6.68782 8.41818 6.69366 8.40817 6.69974 8.3983C6.70581 8.38842 6.71211 8.37869 6.71866 8.36912C6.72521 8.35956 6.73199 8.35016 6.739 8.34092C6.74599 8.33167 6.75321 8.32261 6.76066 8.31373C6.7681 8.30484 6.77576 8.29613 6.78362 8.28762C6.79149 8.2791 6.79956 8.27078 6.80782 8.26266C6.8161 8.25453 6.82457 8.24661 6.83321 8.23891C6.84187 8.23118 6.85071 8.22369 6.85974 8.21641C6.86875 8.20912 6.87794 8.20205 6.88732 8.19522C6.89668 8.18838 6.9062 8.18178 6.91587 8.17541C6.92556 8.16903 6.9354 8.16289 6.94538 8.15699C6.95536 8.15109 6.96547 8.14544 6.97573 8.14004C6.98599 8.13464 6.99638 8.12949 7.00689 8.12459C7.01739 8.11968 7.02801 8.11504 7.03874 8.11066C7.04947 8.10628 7.0603 8.10215 7.07124 8.09828C7.08217 8.09443 7.09318 8.09084 7.10429 8.08752C7.1154 8.0842 7.12658 8.08115 7.13784 8.07836C7.14909 8.07559 7.16041 8.07308 7.17179 8.07084C7.18317 8.06861 7.19459 8.06666 7.20607 8.06498C7.21754 8.06331 7.22904 8.06192 7.24058 8.0608C7.25211 8.05968 7.26368 8.05885 7.27526 8.0583C7.28684 8.05774 7.29843 8.05747 7.31003 8.05748C7.32162 8.05749 7.3332 8.05779 7.34478 8.05836C7.35637 8.05892 7.36793 8.05977 7.37946 8.06092C7.391 8.06205 7.4025 8.06346 7.41398 8.06516C7.42545 8.06684 7.43687 8.0688 7.44823 8.07105C7.45961 8.07331 7.47093 8.07583 7.48218 8.07861C7.49343 8.08141 7.5046 8.08449 7.51569 8.08783C7.5268 8.09117 7.53782 8.09477 7.54874 8.09865C7.55967 8.10252 7.57049 8.10665 7.58122 8.11105C7.59195 8.11546 7.60256 8.12012 7.61306 8.12504C7.62357 8.12996 7.63394 8.13513 7.64419 8.14055C7.65444 8.14596 7.66455 8.15163 7.67452 8.15754C7.6845 8.16345 7.69432 8.1696 7.70399 8.176C7.71367 8.18239 7.72318 8.18901 7.73253 8.19586C7.74188 8.20271 7.75106 8.20979 7.76007 8.21709C7.76908 8.22438 7.77791 8.23189 7.78655 8.23961C7.7952 8.24734 7.80365 8.25528 7.8119 8.26342L9.94263 10.4341L12.1068 8.26098C12.1151 8.25297 12.1236 8.24517 12.1324 8.23758C12.1411 8.22999 12.15 8.22261 12.159 8.21545C12.1681 8.20829 12.1773 8.20135 12.1868 8.19463C12.1961 8.18792 12.2057 8.18145 12.2154 8.1752C12.2252 8.16895 12.235 8.16293 12.245 8.15715C12.2551 8.15138 12.2652 8.14585 12.2755 8.14057C12.2857 8.13528 12.2961 8.13025 12.3067 8.12547C12.3172 8.12069 12.3278 8.11617 12.3386 8.11191C12.3493 8.10764 12.3601 8.10364 12.3711 8.0999C12.382 8.09617 12.393 8.09269 12.4041 8.08947C12.4152 8.08627 12.4264 8.08333 12.4377 8.08066C12.4489 8.07799 12.4602 8.07561 12.4716 8.0735C12.4829 8.07137 12.4943 8.06953 12.5058 8.06797C12.5172 8.06639 12.5287 8.0651 12.5402 8.06408C12.5517 8.06308 12.5633 8.06235 12.5748 8.06189C12.5863 8.06144 12.5979 8.06126 12.6095 8.06137C12.621 8.06147 12.6326 8.06186 12.6441 8.06252C12.6556 8.06318 12.6672 8.06413 12.6786 8.06535C12.6901 8.06658 12.7016 8.06807 12.713 8.06984C12.7244 8.07163 12.7358 8.07368 12.7471 8.076C12.7585 8.07833 12.7697 8.08093 12.7809 8.08381C12.7921 8.08667 12.8032 8.08981 12.8143 8.09322C12.8253 8.09663 12.8362 8.10031 12.8471 8.10424C12.858 8.10818 12.8687 8.11238 12.8794 8.11684C12.8901 8.1213 12.9006 8.12602 12.911 8.131C12.9215 8.13596 12.9318 8.14118 12.942 8.14666C12.9521 8.15213 12.9622 8.15784 12.9721 8.16379C12.982 8.16974 12.9917 8.17593 13.0013 8.18236C13.011 8.1888 13.0204 8.19545 13.0297 8.20232C13.039 8.20921 13.0481 8.21632 13.057 8.22365C13.066 8.23097 13.0747 8.23851 13.0833 8.24627C13.0919 8.25402 13.1002 8.26197 13.1084 8.27012C13.1166 8.27827 13.1246 8.28661 13.1324 8.29516C13.1402 8.3037 13.1477 8.31242 13.1551 8.32133C13.1625 8.33025 13.1696 8.33933 13.1765 8.34857C13.1834 8.35783 13.1901 8.36725 13.1966 8.37682C13.2031 8.3864 13.2093 8.39613 13.2153 8.40602C13.2213 8.4159 13.227 8.42592 13.2326 8.43607C13.2381 8.44623 13.2433 8.45651 13.2484 8.46691C13.2534 8.47733 13.2581 8.48786 13.2626 8.49852C13.2671 8.50915 13.2714 8.5199 13.2754 8.53074C13.2794 8.54159 13.2831 8.55253 13.2865 8.56355C13.29 8.57458 13.2932 8.58569 13.2961 8.59687C13.299 8.60806 13.3016 8.6193 13.304 8.6306C13.3064 8.64192 13.3085 8.65329 13.3103 8.66471C13.3121 8.67611 13.3137 8.68756 13.3149 8.69904C13.3162 8.71053 13.3172 8.72204 13.3179 8.73357C13.3186 8.74511 13.3191 8.75665 13.3192 8.7682C13.3194 8.77977 13.3192 8.79132 13.3188 8.80287C13.3184 8.81442 13.3177 8.82595 13.3168 8.83746C13.3158 8.84898 13.3146 8.86048 13.313 8.87193C13.3115 8.88338 13.3097 8.89479 13.3077 8.90617C13.3056 8.91754 13.3032 8.92885 13.3006 8.9401C13.298 8.95136 13.2951 8.96255 13.2919 8.97365C13.2888 8.98477 13.2853 8.99581 13.2817 9.00676C13.2779 9.01771 13.274 9.02856 13.2698 9.03932C13.2656 9.05007 13.2611 9.06072 13.2563 9.07127C13.2516 9.08182 13.2466 9.09224 13.2414 9.10254C13.2361 9.11284 13.2306 9.123 13.2249 9.13303C13.2192 9.14307 13.2132 9.15296 13.207 9.16269C13.2008 9.17245 13.1944 9.18204 13.1877 9.19146C13.181 9.20091 13.1741 9.21017 13.167 9.21928C13.1598 9.22838 13.1525 9.2373 13.145 9.24603C13.1374 9.25478 13.1296 9.26334 13.1217 9.2717L10.447 11.958C10.4387 11.9663 10.4302 11.9745 10.4215 11.9823C10.4128 11.9902 10.4039 11.9979 10.3948 12.0054C10.3857 12.0128 10.3764 12.02 10.367 12.027C10.3576 12.034 10.348 12.0408 10.3382 12.0473C10.3284 12.0538 10.3185 12.0601 10.3084 12.0662C10.2983 12.0722 10.2881 12.078 10.2777 12.0835C10.2674 12.0891 10.2569 12.0944 10.2462 12.0994C10.2356 12.1044 10.2249 12.1092 10.214 12.1137C10.2032 12.1182 10.1922 12.1224 10.1811 12.1263C10.1701 12.1303 10.1589 12.134 10.1477 12.1374C10.1364 12.1408 10.1251 12.1439 10.1137 12.1468C10.1023 12.1496 10.0908 12.1522 10.0793 12.1545C10.0678 12.1568 10.0562 12.1588 10.0446 12.1605C10.0329 12.1622 10.0213 12.1637 10.0096 12.1648C9.9979 12.166 9.98619 12.1669 9.97447 12.1674C9.96271 12.168 9.95097 12.1683 9.93923 12.1683L9.93923 12.1676Z"   fill="#FFEEAC" >
</path>
</svg>
