<svg xmlns="http://www.w3.org/2000/svg" xmlns:xlink="http://www.w3.org/1999/xlink" width="45" height="45" viewBox="0 0 45 45" fill="none">
<rect  x="0" y="0" width="45" height="45" rx="16"    fill="#FFEEEB" >
</rect>
<path d="M16.36 23.9654C16.36 18.7406 20.2807 14.5198 25.1213 14.4849L25.1213 13.2865C25.1213 11.8057 26.759 10.9698 27.8865 11.8752L33.2732 16.2024C34.1623 16.9163 34.1623 18.3116 33.2732 19.0254L27.8841 23.353C26.7566 24.2584 25.119 23.4221 25.119 21.9417L25.119 20.8045C21.288 20.8045 18.0614 23.4595 16.8468 27.1267C16.5419 26.1145 16.36 25.1026 16.36 23.9654Z"   fill="#FF5733" >
</path>
<path d="M31.6912 23.9643C32.0289 23.9635 32.3529 24.0943 32.5917 24.3275C32.8304 24.5608 32.9642 24.8773 32.9633 25.2072L32.9633 28.6243C32.9633 31.0322 30.9647 32.9867 28.4973 32.9867L14.9664 32.9867C12.5011 32.9867 10.5 31.0346 10.5 28.6243L10.5 18.792C10.5 16.3845 12.4986 14.43 14.9664 14.43L16.2811 14.43C16.6192 14.4298 16.9436 14.561 17.1827 14.7946C17.4218 15.0281 17.556 15.345 17.5557 15.6753C17.556 16.0056 17.4217 16.3225 17.1825 16.556C16.9434 16.7896 16.6189 16.9206 16.2807 16.9203L14.966 16.9203C14.457 16.9202 13.9688 17.1176 13.6089 17.4692C13.2491 17.8208 13.047 18.2976 13.0472 18.7948L13.0472 28.6271C13.0471 29.1242 13.2492 29.601 13.6092 29.9525C13.9691 30.304 14.4574 30.5014 14.9664 30.5012L28.4973 30.5012C29.0063 30.5013 29.4944 30.3039 29.8543 29.9524C30.2141 29.6009 30.4163 29.1242 30.4162 28.6271L30.4162 25.2099C30.4158 24.8795 30.55 24.5626 30.7892 24.329C31.0284 24.0953 31.3529 23.9643 31.6912 23.9643Z"   fill="#FFA6B5" >
</path>
</svg>
