<svg xmlns="http://www.w3.org/2000/svg" xmlns:xlink="http://www.w3.org/1999/xlink" width="38" height="39" viewBox="0 0 38 39" fill="none">
<g filter="url(#filter_216_2430)">
<rect  x="4" y="3" width="23" height="23" rx="4"    fill="url(#linear_fill_216_2430_0)" >
</rect>
</g>
<g filter="url(#filter_216_2431)">
<rect  x="10" y="9" width="24" height="24" rx="4"    fill="#FFFFFF" >
</rect>
</g>
<rect  x="10" y="9" width="24" height="23.499999999999986" rx="4"    fill="url(#linear_fill_216_2432_0)" >
</rect>
<path d="M21.4057 14.8689L18.9824 17.2898L18.8676 17.4101C17.5943 18.8577 17.6474 20.9614 18.9652 22.2792C19.0033 22.3173 19.0422 22.3544 19.0819 22.3907C19.1217 22.427 19.1622 22.4623 19.2036 22.4967C19.245 22.5311 19.2871 22.5645 19.33 22.597C19.3729 22.6294 19.4166 22.6609 19.4609 22.6913C19.5052 22.7218 19.5503 22.7512 19.596 22.7796C19.6417 22.808 19.688 22.8353 19.7349 22.8616C19.7819 22.8878 19.8294 22.913 19.8776 22.9371C19.9257 22.9612 19.9743 22.9841 20.0235 23.006C20.0726 23.0278 20.1223 23.0485 20.1724 23.0681C20.2225 23.0877 20.273 23.1061 20.324 23.1233C20.3749 23.1406 20.4263 23.1566 20.478 23.1715C20.5297 23.1864 20.5817 23.2001 20.634 23.2126C20.6863 23.2251 20.7389 23.2364 20.7918 23.2465C20.8446 23.2566 20.8977 23.2655 20.9509 23.2731C21.0042 23.2808 21.0576 23.2872 21.1111 23.2924C21.1647 23.2976 21.2183 23.3016 21.272 23.3043C21.3258 23.307 21.3795 23.3085 21.4333 23.3088C21.4871 23.3091 21.5409 23.3081 21.5947 23.3059C21.6484 23.3037 21.7021 23.3003 21.7557 23.2956C21.8093 23.291 21.8627 23.2851 21.9161 23.278C21.9694 23.2708 22.0225 23.2625 22.0755 23.2529C22.1284 23.2434 22.1811 23.2326 22.2336 23.2206C22.286 23.2087 22.3382 23.1955 22.39 23.1811C22.4419 23.1667 22.4933 23.1512 22.5445 23.1344C22.5956 23.1177 22.6463 23.0998 22.6966 23.0807C22.7469 23.0617 22.7968 23.0415 22.8462 23.0201C22.8955 22.9988 22.9444 22.9763 22.9928 22.9527C23.0411 22.9291 23.0889 22.9044 23.1361 22.8786C23.1833 22.8528 23.2299 22.826 23.2759 22.798C23.3219 22.7701 23.3672 22.7412 23.4119 22.7111C23.4565 22.6811 23.5004 22.6501 23.5437 22.6181C23.5869 22.5861 23.6294 22.553 23.6711 22.5191L23.7469 22.4542L23.9133 22.3011L24.764 21.4504L26.9739 23.6596L23.1071 27.5264C23.089 27.5445 23.0705 27.5621 23.0515 27.5793C23.0326 27.5964 23.0132 27.6131 22.9935 27.6294C22.9737 27.6456 22.9536 27.6613 22.933 27.6765C22.9125 27.6918 22.8916 27.7065 22.8703 27.7207C22.8491 27.7349 22.8275 27.7485 22.8056 27.7617C22.7836 27.7748 22.7614 27.7874 22.7388 27.7995C22.7163 27.8115 22.6935 27.823 22.6703 27.8339C22.6472 27.8449 22.6239 27.8552 22.6003 27.865C22.5766 27.8748 22.5528 27.884 22.5287 27.8926C22.5047 27.9012 22.4804 27.9092 22.4559 27.9166C22.4315 27.924 22.4068 27.9309 22.382 27.9371C22.3572 27.9433 22.3323 27.9489 22.3072 27.9539C22.2822 27.9589 22.257 27.9632 22.2317 27.967C22.2064 27.9707 22.181 27.9739 22.1556 27.9764C22.1302 27.9789 22.1047 27.9808 22.0791 27.982C22.0536 27.9832 22.0281 27.9839 22.0025 27.9839C21.9769 27.9839 21.9514 27.9832 21.9258 27.982C21.9003 27.9808 21.8748 27.9789 21.8494 27.9764C21.8239 27.9739 21.7986 27.9707 21.7733 27.967C21.748 27.9632 21.7228 27.9589 21.6977 27.9539C21.6727 27.9489 21.6477 27.9433 21.6229 27.9371C21.5981 27.9309 21.5735 27.924 21.549 27.9166C21.5246 27.9092 21.5003 27.9012 21.4762 27.8926C21.4522 27.884 21.4283 27.8748 21.4047 27.865C21.3811 27.8552 21.3577 27.8449 21.3346 27.8339C21.3115 27.823 21.2887 27.8115 21.2661 27.7995C21.2436 27.7874 21.2213 27.7748 21.1994 27.7617C21.1775 27.7485 21.1559 27.7349 21.1346 27.7207C21.1134 27.7065 21.0925 27.6918 21.0719 27.6765C21.0514 27.6613 21.0312 27.6456 21.0115 27.6294C20.9917 27.6131 20.9724 27.5964 20.9534 27.5793C20.9345 27.5621 20.916 27.5445 20.8979 27.5264L15.3749 22.0035C15.3235 21.9521 15.2733 21.8996 15.2244 21.846C15.1754 21.7923 15.1277 21.7375 15.0813 21.6816C15.0349 21.6257 14.9898 21.5688 14.946 21.5108C14.9023 21.4528 14.8599 21.3938 14.8188 21.3339C14.7778 21.2739 14.7382 21.213 14.7 21.1512C14.6618 21.0894 14.6251 21.0268 14.5898 20.9633C14.5545 20.8997 14.5207 20.8354 14.4884 20.7704C14.4561 20.7053 14.4254 20.6395 14.3961 20.573C14.3669 20.5065 14.3392 20.4393 14.3131 20.3715C14.287 20.3037 14.2625 20.2354 14.2396 20.1664C14.2166 20.0975 14.1953 20.028 14.1756 19.9581C14.1559 19.8882 14.1379 19.8178 14.1214 19.7471C14.105 19.6763 14.0902 19.6052 14.0771 19.5337C14.064 19.4623 14.0525 19.3905 14.0427 19.3185C14.0329 19.2465 14.0248 19.1744 14.0184 19.102C14.012 19.0296 14.0072 18.9571 14.0042 18.8846C14.0011 18.812 13.9997 18.7393 14 18.6667C14.0004 18.594 14.0024 18.5215 14.0061 18.4489C14.0097 18.3763 14.0151 18.3039 14.0222 18.2316C14.0292 18.1593 14.038 18.0872 14.0484 18.0153C14.0588 17.9434 14.0709 17.8717 14.0846 17.8004C14.0984 17.7291 14.1138 17.6581 14.1308 17.5875C14.1479 17.5168 14.1665 17.4466 14.1868 17.3769C14.2072 17.3071 14.2291 17.2379 14.2526 17.1691C14.2761 17.1004 14.3012 17.0323 14.3279 16.9647C14.3546 16.8971 14.3829 16.8302 14.4127 16.7639C14.4425 16.6977 14.4739 16.6322 14.5067 16.5674C14.5396 16.5026 14.5739 16.4386 14.6097 16.3754C14.6456 16.3122 14.6829 16.2498 14.7216 16.1884C14.7603 16.1269 14.8005 16.0664 14.842 16.0068C14.8836 15.9472 14.9265 15.8885 14.9707 15.8309C15.015 15.7733 15.0606 15.7168 15.1075 15.6613C15.1544 15.6058 15.2026 15.5515 15.252 15.4982C15.3014 15.445 15.3521 15.3929 15.4039 15.342C15.4558 15.2911 15.5088 15.2415 15.5629 15.193C15.6171 15.1446 15.6723 15.0975 15.7287 15.0516C15.7851 15.0058 15.8424 14.9612 15.9009 14.918C15.9593 14.8748 16.0187 14.833 16.079 14.7926C16.1394 14.7522 16.2007 14.7132 16.2629 14.6756C16.3251 14.638 16.3881 14.6019 16.4519 14.5673C16.5158 14.5326 16.5804 14.4995 16.6458 14.4679C16.7112 14.4362 16.7773 14.4061 16.8441 14.3775C16.9109 14.349 16.9784 14.322 17.0464 14.2965C17.1145 14.2711 17.1831 14.2473 17.2522 14.225C17.3214 14.2028 17.391 14.1822 17.4612 14.1632C17.5313 14.1441 17.6018 14.1268 17.6727 14.1111C17.7437 14.0953 17.8149 14.0813 17.8865 14.0689C17.9581 14.0565 18.0299 14.0457 18.102 14.0367C18.1741 14.0276 18.2464 14.0202 18.3188 14.0145C18.3912 14.0088 18.4637 14.0048 18.5364 14.0024C18.609 14.0001 18.6816 13.9994 18.7542 14.0005C18.8269 14.0015 18.8995 14.0042 18.972 14.0087C19.0445 14.0131 19.1169 14.0192 19.1891 14.027C19.2614 14.0347 19.3334 14.0442 19.4052 14.0553C19.477 14.0665 19.5485 14.0793 19.6197 14.0937C19.6909 14.1082 19.7617 14.1243 19.8321 14.142C19.9026 14.1598 19.9726 14.1791 20.0421 14.2001C20.1117 14.2211 20.1807 14.2438 20.2492 14.268C20.3177 14.2922 20.3856 14.318 20.4529 14.3453C20.5202 14.3727 20.5868 14.4016 20.6528 14.4321C20.7187 14.4626 20.784 14.4946 20.8484 14.5281C20.9129 14.5616 20.9766 14.5966 21.0394 14.633C21.1022 14.6695 21.1642 14.7074 21.2253 14.7467C21.2863 14.7861 21.3465 14.8268 21.4057 14.8689ZM28.5113 15.2603L28.6449 15.3892L28.6949 15.4408L28.8042 15.5564C28.9417 15.7095 29.0683 15.8704 29.1823 16.036L29.1112 15.9353C29.1511 15.9907 29.1901 16.047 29.2284 16.104L29.1823 16.036C29.2253 16.0985 29.2659 16.161 29.305 16.2235L29.2284 16.104C29.262 16.1548 29.294 16.2056 29.3253 16.2579L29.305 16.2235C29.3378 16.2774 29.3698 16.3313 29.4011 16.386L29.3253 16.2579C29.3651 16.3227 29.4034 16.3891 29.4393 16.4555L29.4003 16.386C29.4292 16.4368 29.4565 16.4875 29.4831 16.5383L29.4393 16.4555C29.4706 16.5141 29.5018 16.5727 29.5307 16.6328L29.4839 16.5391C29.519 16.6071 29.5518 16.6758 29.5838 16.7453L29.5307 16.6328C29.5565 16.686 29.5815 16.7399 29.6049 16.7938L29.5838 16.7453C29.6167 16.818 29.6479 16.8899 29.6768 16.9641L29.6049 16.7938C29.6267 16.8436 29.6477 16.8938 29.6677 16.9444C29.6878 16.9949 29.707 17.0458 29.7253 17.097C29.7436 17.1482 29.761 17.1997 29.7775 17.2516C29.794 17.3034 29.8097 17.3555 29.8244 17.4078C29.8391 17.4602 29.8529 17.5128 29.8658 17.5657C29.8787 17.6185 29.8906 17.6715 29.9017 17.7248C29.9127 17.7781 29.9229 17.8315 29.9321 17.8851C29.9413 17.9387 29.9495 17.9924 29.9569 18.0463C29.9642 18.1002 29.9706 18.1542 29.9761 18.2083C29.9816 18.2625 29.9861 18.3166 29.9897 18.3709C29.9933 18.4252 29.9959 18.4795 29.9976 18.5339C29.9994 18.5882 30.0001 18.6426 30 18.697C29.9998 18.7514 29.9987 18.8058 29.9966 18.8601C29.9946 18.9145 29.9916 18.9688 29.9877 19.023C29.9837 19.0773 29.9788 19.1314 29.973 19.1855C29.9672 19.2396 29.9605 19.2935 29.9528 19.3474C29.9451 19.4012 29.9365 19.4549 29.927 19.5085C29.9174 19.562 29.907 19.6154 29.8956 19.6686C29.8842 19.7217 29.8719 19.7747 29.8587 19.8275C29.8455 19.8802 29.8313 19.9328 29.8163 19.985C29.8012 20.0373 29.7853 20.0893 29.7685 20.141C29.7516 20.1927 29.7339 20.2441 29.7153 20.2952C29.6966 20.3463 29.6772 20.3971 29.6568 20.4475C29.6364 20.4979 29.6151 20.548 29.593 20.5977C29.5709 20.6474 29.548 20.6967 29.5241 20.7456C29.5003 20.7945 29.4757 20.8429 29.4502 20.891C29.4247 20.939 29.3983 20.9866 29.3712 21.0338C29.344 21.0809 29.3161 21.1275 29.2873 21.1737C29.2586 21.2199 29.229 21.2655 29.1987 21.3106C29.1683 21.3558 29.1372 21.4004 29.1053 21.4444C29.0734 21.4885 29.0408 21.532 29.0074 21.5749C28.974 21.6179 28.9399 21.6602 28.905 21.7019L28.7659 21.8629L28.6917 21.9394L28.6316 22.0035L27.5262 23.1073L25.317 20.8981C25.308 20.8891 25.2987 20.8803 25.2893 20.8717C25.2798 20.8631 25.2701 20.8548 25.2602 20.8466C25.2504 20.8385 25.2403 20.8307 25.23 20.8231C25.2197 20.8155 25.2093 20.8081 25.1987 20.801C25.188 20.7939 25.1772 20.7871 25.1663 20.7805C25.1553 20.7739 25.1442 20.7676 25.1329 20.7616C25.1216 20.7556 25.1102 20.7498 25.0987 20.7444C25.0871 20.7389 25.0754 20.7337 25.0636 20.7288C25.0518 20.7239 25.0399 20.7193 25.0279 20.715C25.0158 20.7107 25.0037 20.7067 24.9915 20.703C24.9792 20.6993 24.9669 20.6959 24.9545 20.6928C24.9421 20.6897 24.9297 20.6869 24.9171 20.6844C24.9046 20.6819 24.892 20.6797 24.8793 20.6778C24.8667 20.676 24.854 20.6744 24.8413 20.6731C24.8286 20.6719 24.8158 20.671 24.8031 20.6703C24.7903 20.6697 24.7775 20.6694 24.7647 20.6694C24.7519 20.6694 24.7392 20.6697 24.7264 20.6703C24.7136 20.671 24.7009 20.6719 24.6882 20.6731C24.6755 20.6744 24.6628 20.676 24.6501 20.6778C24.6375 20.6797 24.6249 20.6819 24.6124 20.6844C24.5998 20.6869 24.5874 20.6897 24.575 20.6928C24.5626 20.6959 24.5503 20.6993 24.538 20.703C24.5258 20.7067 24.5136 20.7107 24.5016 20.715C24.4896 20.7193 24.4777 20.7239 24.4659 20.7288C24.454 20.7337 24.4424 20.7389 24.4308 20.7444C24.4193 20.7498 24.4078 20.7556 24.3966 20.7616C24.3853 20.7676 24.3742 20.7739 24.3632 20.7805C24.3522 20.7871 24.3414 20.7939 24.3308 20.801C24.3202 20.8081 24.3097 20.8155 24.2995 20.8231C24.2892 20.8307 24.2791 20.8385 24.2693 20.8466C24.2594 20.8548 24.2497 20.8631 24.2402 20.8717C24.2307 20.8803 24.2215 20.8891 24.2124 20.8981L23.3844 21.7269L23.2375 21.8621L23.1774 21.9136C23.1449 21.9401 23.1119 21.9657 23.0783 21.9906C23.0447 22.0155 23.0105 22.0397 22.9758 22.063C22.941 22.0863 22.9058 22.1089 22.87 22.1306C22.8343 22.1523 22.798 22.1732 22.7613 22.1932C22.7246 22.2133 22.6874 22.2325 22.6498 22.2508C22.6122 22.2692 22.5742 22.2867 22.5358 22.3033C22.4974 22.3199 22.4586 22.3356 22.4195 22.3504C22.3804 22.3652 22.3409 22.3791 22.3012 22.3921C22.2614 22.4052 22.2213 22.4173 22.181 22.4284C22.1407 22.4396 22.1001 22.4498 22.0594 22.4592C22.0186 22.4685 21.9776 22.4768 21.9364 22.4843C21.8952 22.4917 21.8539 22.4982 21.8124 22.5037C21.771 22.5093 21.7294 22.5138 21.6877 22.5175C21.646 22.5211 21.6043 22.5238 21.5625 22.5255C21.5207 22.5272 21.4788 22.5279 21.437 22.5277C21.3952 22.5275 21.3533 22.5263 21.3116 22.5242C21.2698 22.522 21.2281 22.519 21.1864 22.5149C21.1448 22.5109 21.1032 22.5059 21.0618 22.4999C21.0204 22.494 20.9792 22.4871 20.938 22.4792C20.8969 22.4714 20.8561 22.4626 20.8154 22.4529C20.7747 22.4431 20.7342 22.4325 20.694 22.4209C20.6538 22.4093 20.6139 22.3968 20.5742 22.3834C20.5346 22.37 20.4953 22.3557 20.4563 22.3404C20.4174 22.3252 20.3788 22.3091 20.3405 22.2921C20.3023 22.2751 20.2645 22.2573 20.2271 22.2386C20.1896 22.2198 20.1527 22.2003 20.1161 22.1798C20.0796 22.1594 20.0436 22.1381 20.0081 22.1161C19.9725 22.094 19.9375 22.0711 19.903 22.0474C19.8685 22.0237 19.8346 21.9993 19.8012 21.974C19.7679 21.9488 19.7351 21.9228 19.7029 21.896C19.6708 21.8693 19.6392 21.8418 19.6083 21.8136C19.5774 21.7854 19.5471 21.7565 19.5175 21.7269C18.5364 20.7458 18.4504 19.1928 19.3277 18.0757L19.4332 17.9492L19.5347 17.8421L22.0228 15.3548L22.0501 15.3283L22.1798 15.2064C22.2773 15.1183 22.3784 15.0345 22.4829 14.9549L22.3821 15.0346C22.4368 14.9908 22.4915 14.9486 22.5462 14.9072L22.4837 14.9549C22.5329 14.9174 22.5829 14.8807 22.6337 14.8455L22.547 14.908C22.6023 14.8672 22.6586 14.8276 22.7157 14.7893L22.6337 14.8455C22.6866 14.8082 22.7402 14.772 22.7946 14.7369L22.7157 14.7893C22.7719 14.7518 22.8282 14.7158 22.8852 14.6807L22.7946 14.7369C22.8493 14.7026 22.904 14.669 22.9594 14.6369L22.8852 14.6807C22.9415 14.6463 22.9985 14.6135 23.0563 14.5822L22.9594 14.6369C23.0157 14.6041 23.0727 14.5721 23.1297 14.5424L23.0563 14.5815C23.111 14.5518 23.1672 14.5221 23.2235 14.494L23.1297 14.5424C23.186 14.5127 23.243 14.4838 23.3 14.4565L23.2235 14.494L23.3969 14.412L23.3 14.4565C23.3602 14.4284 23.4211 14.401 23.482 14.3745L23.3969 14.412C23.4571 14.3854 23.518 14.3596 23.5789 14.3354L23.482 14.3745C23.5438 14.3487 23.6055 14.3237 23.668 14.3003L23.5789 14.3354C23.6302 14.3152 23.6818 14.2958 23.7338 14.2774C23.7857 14.259 23.838 14.2415 23.8905 14.2249C23.9431 14.2083 23.9959 14.1926 24.0491 14.1779C24.1022 14.1631 24.1555 14.1493 24.2091 14.1365C24.2627 14.1236 24.3165 14.1117 24.3706 14.1007C24.4246 14.0897 24.4788 14.0797 24.5332 14.0706C24.5875 14.0616 24.6421 14.0534 24.6967 14.0463C24.7514 14.0391 24.8061 14.0329 24.861 14.0277C24.9159 14.0225 24.9708 14.0182 25.0259 14.0149C25.0809 14.0115 25.1359 14.0092 25.1911 14.0078C25.2462 14.0064 25.3013 14.006 25.3564 14.0066C25.4115 14.0071 25.4666 14.0087 25.5217 14.0112C25.5767 14.0136 25.6318 14.0171 25.6867 14.0215C25.7416 14.026 25.7965 14.0313 25.8513 14.0377C25.906 14.044 25.9607 14.0513 26.0152 14.0596C26.0697 14.0678 26.124 14.0771 26.1782 14.0872C26.2323 14.0974 26.2863 14.1085 26.3401 14.1206C26.3939 14.1326 26.4475 14.1457 26.5008 14.1596C26.5541 14.1735 26.6072 14.1884 26.66 14.2042C26.7128 14.22 26.7653 14.2368 26.8176 14.2544C26.8698 14.2721 26.9217 14.2906 26.9732 14.3101C27.0248 14.3296 27.076 14.3499 27.1269 14.3712C27.1777 14.3925 27.2282 14.4146 27.2783 14.4377C27.3284 14.4607 27.378 14.4846 27.4273 14.5094C27.4765 14.5342 27.5253 14.5598 27.5736 14.5863C27.622 14.6128 27.6698 14.6401 27.7172 14.6683C27.7646 14.6965 27.8115 14.7255 27.8578 14.7553C27.9042 14.7851 27.95 14.8157 27.9953 14.8472C28.0406 14.8786 28.0853 14.9108 28.1295 14.9438C28.1736 14.9768 28.2172 15.0106 28.2602 15.0451C28.3032 15.0796 28.3455 15.1149 28.3872 15.1509C28.429 15.1869 28.4701 15.2236 28.5105 15.2611L28.5113 15.2603Z"   fill="url(#linear_fill_216_2433)" >
</path>
<defs>
<linearGradient id="linear_fill_216_2430_0" x1="8.8576" y1="26" x2="23.56058" y2="3" gradientUnits="userSpaceOnUse">
<stop offset="0" stop-color="#92BDF6"  />
<stop offset="1" stop-color="#CDE3FE"  />
</linearGradient>
<filter id="filter_216_2430" x="0" y="1" width="31" height="31" filterUnits="userSpaceOnUse" color-interpolation-filters="sRGB">
<feFlood flood-opacity="0" result="feFloodId_216_2430"/>
<feColorMatrix in="SourceAlpha" type="matrix" values="0 0 0 0 0 0 0 0 0 0 0 0 0 0 0 0 0 0 127 0" result="hardAlpha_216_2430"/>
<feOffset dx="0" dy="2"/>
<feGaussianBlur stdDeviation="2"/>
<feComposite in2="hardAlpha_216_2430" operator="out"/>
<feColorMatrix type="matrix" values="0 0 0 0 0 0 0 0 0 0 0 0 0 0 0 0 0 0 0.15 0"/>
<feBlend mode="normal" in2="feFloodId_216_2430" result="dropShadow_1_216_2430"/>
<feBlend mode="normal" in="SourceGraphic" in2="dropShadow_1_216_2430" result="shape_216_2430"/>
</filter>
<filter id="filter_216_2431" x="6" y="7" width="32" height="32" filterUnits="userSpaceOnUse" color-interpolation-filters="sRGB">
<feFlood flood-opacity="0" result="feFloodId_216_2431"/>
<feColorMatrix in="SourceAlpha" type="matrix" values="0 0 0 0 0 0 0 0 0 0 0 0 0 0 0 0 0 0 127 0" result="hardAlpha_216_2431"/>
<feOffset dx="0" dy="2"/>
<feGaussianBlur stdDeviation="2"/>
<feComposite in2="hardAlpha_216_2431" operator="out"/>
<feColorMatrix type="matrix" values="0 0 0 0 0 0 0 0 0 0 0 0 0 0 0 0 0 0 0.15 0"/>
<feBlend mode="normal" in2="feFloodId_216_2431" result="dropShadow_1_216_2431"/>
<feBlend mode="normal" in="SourceGraphic" in2="dropShadow_1_216_2431" result="shape_216_2431"/>
</filter>
<linearGradient id="linear_fill_216_2432_0" x1="17.82031610841412" y1="9" x2="34" y2="32.499999999999986" gradientUnits="userSpaceOnUse">
<stop offset="0" stop-color="#F2F6FF"  />
<stop offset="1" stop-color="#CFE2FF"  />
</linearGradient>
<linearGradient id="linear_fill_216_2433" x1="19.213542938232422" y1="14" x2="30" y2="27.98388671875" gradientUnits="userSpaceOnUse">
<stop offset="0" stop-color="#ADD1FD"  />
<stop offset="1" stop-color="#3B8BFC"  />
</linearGradient>
</defs>
</svg>
