<svg xmlns="http://www.w3.org/2000/svg" xmlns:xlink="http://www.w3.org/1999/xlink" width="40" height="36" viewBox="0 0 40 36" fill="none">
<g filter="url(#filter_216_2447)">
<rect  x="4" y="2" width="32" height="8" rx="4"    fill="url(#linear_fill_216_2447_0)" >
</rect>
</g>
<g filter="url(#filter_216_2448)">
<rect  x="8" y="6" width="24" height="24" rx="4"    fill="#FFFFFF" >
</rect>
</g>
<rect  x="8" y="6" width="24" height="23.499999999999986" rx="4"    fill="url(#linear_fill_216_2449_0)" >
</rect>
<path d="M27 20.4569C27 20.6142 26.8725 20.7416 26.7153 20.7416L13.2847 20.7416C13.1275 20.7416 13 20.6142 13 20.4569L13 19.3517C13 19.1944 13.1275 19.067 13.2847 19.067L26.7153 19.067C26.8725 19.067 27 19.1944 27 19.3517L27 20.4569ZM27 22.9689C27 23.1261 26.8725 23.2536 26.7153 23.2536L13.2847 23.2536C13.1275 23.2536 13 23.1261 13 22.9689L13 21.8636C13 21.7064 13.1275 21.5789 13.2847 21.5789L26.7153 21.5789C26.8725 21.5789 27 21.7064 27 21.8636L27 22.9689ZM26.7153 12L13.2847 12C13.1275 12 13 12.1275 13 12.2847L13 17.945C13 18.1022 13.1275 18.2297 13.2847 18.2297L26.7153 18.2297C26.8725 18.2297 27 18.1022 27 17.945L27 12.2847C27 12.1275 26.8725 12 26.7153 12ZM18.6938 14.7632C18.6938 14.9204 18.5663 15.0478 18.4091 15.0478L14.6244 15.0478C14.4672 15.0478 14.3397 14.9204 14.3397 14.7632L14.3397 13.6579C14.3397 13.5007 14.4672 13.3732 14.6244 13.3732L18.4091 13.3732C18.5663 13.3732 18.6938 13.5007 18.6938 13.6579L18.6938 14.7632Z"   fill="url(#linear_fill_216_2450)" >
</path>
<defs>
<linearGradient id="linear_fill_216_2447_0" x1="10.7584" y1="10" x2="31.21472" y2="2" gradientUnits="userSpaceOnUse">
<stop offset="0" stop-color="#92BDF6"  />
<stop offset="1" stop-color="#CDE3FE"  />
</linearGradient>
<filter id="filter_216_2447" x="0" y="0" width="40" height="16" filterUnits="userSpaceOnUse" color-interpolation-filters="sRGB">
<feFlood flood-opacity="0" result="feFloodId_216_2447"/>
<feColorMatrix in="SourceAlpha" type="matrix" values="0 0 0 0 0 0 0 0 0 0 0 0 0 0 0 0 0 0 127 0" result="hardAlpha_216_2447"/>
<feOffset dx="0" dy="2"/>
<feGaussianBlur stdDeviation="2"/>
<feComposite in2="hardAlpha_216_2447" operator="out"/>
<feColorMatrix type="matrix" values="0 0 0 0 0 0 0 0 0 0 0 0 0 0 0 0 0 0 0.15 0"/>
<feBlend mode="normal" in2="feFloodId_216_2447" result="dropShadow_1_216_2447"/>
<feBlend mode="normal" in="SourceGraphic" in2="dropShadow_1_216_2447" result="shape_216_2447"/>
</filter>
<filter id="filter_216_2448" x="4" y="4" width="32" height="32" filterUnits="userSpaceOnUse" color-interpolation-filters="sRGB">
<feFlood flood-opacity="0" result="feFloodId_216_2448"/>
<feColorMatrix in="SourceAlpha" type="matrix" values="0 0 0 0 0 0 0 0 0 0 0 0 0 0 0 0 0 0 127 0" result="hardAlpha_216_2448"/>
<feOffset dx="0" dy="2"/>
<feGaussianBlur stdDeviation="2"/>
<feComposite in2="hardAlpha_216_2448" operator="out"/>
<feColorMatrix type="matrix" values="0 0 0 0 0 0 0 0 0 0 0 0 0 0 0 0 0 0 0.15 0"/>
<feBlend mode="normal" in2="feFloodId_216_2448" result="dropShadow_1_216_2448"/>
<feBlend mode="normal" in="SourceGraphic" in2="dropShadow_1_216_2448" result="shape_216_2448"/>
</filter>
<linearGradient id="linear_fill_216_2449_0" x1="15.82031610841412" y1="6" x2="32" y2="29.499999999999986" gradientUnits="userSpaceOnUse">
<stop offset="0" stop-color="#F2F6FF"  />
<stop offset="1" stop-color="#CFE2FF"  />
</linearGradient>
<linearGradient id="linear_fill_216_2450" x1="17.561843872070312" y1="12" x2="27" y2="23.253585815429688" gradientUnits="userSpaceOnUse">
<stop offset="0" stop-color="#ADD1FD"  />
<stop offset="1" stop-color="#3B8BFC"  />
</linearGradient>
</defs>
</svg>
