<svg xmlns="http://www.w3.org/2000/svg" xmlns:xlink="http://www.w3.org/1999/xlink" width="36" height="36" viewBox="0 0 36 36" fill="none">
<path d="M30.375 21.125C30 21.25 29.625 21.25 29.25 21.25C27.625 21.25 26.125 20.25 25.5 18.625C24.875 20.125 23.375 21.25 21.75 21.25C20.125 21.25 18.625 20.25 18 18.625C17.375 20.125 15.875 21.25 14.25 21.25C12.625 21.25 11.125 20.25 10.5 18.625C9.87501 20.125 8.37501 21.25 6.75 21.25C6.375 21.25 6 21.25 5.625 21.125L5.625 29.625C5.625 30.375 6.50001 31.375 7.25001 31.375L28.875 31.375C29.625 31.375 30.5 30.375 30.5 29.625L30.5 21.125L30.375 21.125Z"   fill="#FFFFFF" >
</path>
<path d="M30.375 21.0037C30 21.1195 29.625 21.1195 29.25 21.1195C27.625 21.1195 26.125 20.193 25.5 18.6875C24.875 20.0772 23.375 21.1195 21.75 21.1195C20.125 21.1195 18.625 20.193 18 18.6875C17.375 20.0772 15.875 21.1195 14.25 21.1195C12.625 21.1195 11.125 20.193 10.5 18.6875C9.87501 20.0772 8.37501 21.1195 6.75 21.1195C6.375 21.1195 6 21.1195 5.625 21.0037L5.625 28.8787C5.625 29.5735 6.50001 30.5 7.25001 30.5L28.875 30.5C29.625 30.5 30.5 29.5735 30.5 28.8787L30.5 21.0037L30.375 21.0037Z"   fill="url(#linear_fill_216_2440)" >
</path>
<path     fill="url(#linear_fill_216_2441_0)"  d="M32.7533 14.1039L31.2961 10.2874C30.7414 8.83465 29.3478 7.87498 27.7928 7.87498L8.20723 7.87498C6.65225 7.87498 5.25858 8.83465 4.70391 10.2874L3.24668 14.1039C3.0836 14.531 2.9804 14.9871 3.05853 15.4376C3.36691 17.2157 4.86088 18.5 6.75 18.5C8.87499 18.5 10.5 16.875 10.5 14.75C10.5 16.125 11.25 17.375 12.375 18C13.5 18.625 15 18.625 16.125 18C17.25 17.375 18 16.125 18 14.75C18 16.125 18.625 17.375 19.875 18.125C21 18.875 22.5 18.875 23.625 18.125C24.75 17.5 25.375 16.25 25.5 15L25.5 14.75L25.5 15C25.5 16.25 26.25 17.5 27.375 18.125C28.5 18.875 30 18.875 31.25 18.125C32.1827 17.5032 32.7717 16.5379 32.9458 15.4425C33.0176 14.991 32.9164 14.531 32.7533 14.1039ZM28 6.5L8.00001 6.5C7.25001 6.5 6.75 5.99999 6.75 5.25C6.75 4.625 7.25001 4 8.00001 4L28 4C28.625 4 29.25 4.5 29.25 5.25C29.25 5.99999 28.75 6.5 28 6.5Z">
</path>
<defs>
<linearGradient id="linear_fill_216_2440" x1="13.730438232421875" y1="18.6875" x2="30.500015258789062" y2="30.5" gradientUnits="userSpaceOnUse">
<stop offset="0" stop-color="#F2F6FF"  />
<stop offset="1" stop-color="#CFE2FF"  />
</linearGradient>
<linearGradient id="linear_fill_216_2441_0" x1="9.33599853515625" y1="18.6875" x2="28.5137939453125" y2="4" gradientUnits="userSpaceOnUse">
<stop offset="0" stop-color="#92BDF6"  />
<stop offset="1" stop-color="#CDE3FE"  />
</linearGradient>
</defs>
</svg>
