<svg xmlns="http://www.w3.org/2000/svg" xmlns:xlink="http://www.w3.org/1999/xlink" width="36" height="36" viewBox="0 0 36 36" fill="none">
<g  clip-path="url(#clip-path-216_4666)">
<path d="M25.0454 29L10.2727 29C9.01705 29 8 27.983 8 26.7273L8 11.9546C8 10.6989 9.01705 9.68188 10.2727 9.68188L25.0454 9.68188C26.3011 9.68188 27.3182 10.6989 27.3182 11.9546L27.3182 26.7273C27.3182 27.9773 26.3011 29 25.0454 29Z"   fill="#FFBE3D" >
</path>
<path d="M21.0682 11.5455L14.25 11.5455C12.9943 11.5455 11.9773 10.5284 11.9773 9.27274C11.9773 8.01705 12.9943 7 14.25 7L21.0682 7C22.3239 7 23.3409 8.01705 23.3409 9.27274C23.3409 10.5284 22.3239 11.5455 21.0682 11.5455Z"   fill="#FAE2AA" >
</path>
<path d="M17.909 19.1363L12.5454 19.1363C11.8295 19.1363 11.2499 18.5568 11.2499 17.8408L11.2499 17.5909C11.2499 16.875 11.8295 16.2954 12.5454 16.2954L17.909 16.2954C18.6249 16.2954 19.2045 16.875 19.2045 17.5909L19.2045 17.8408C19.2044 17.862 19.2037 17.8832 19.2026 17.9043C19.2014 17.9255 19.1998 17.9466 19.1976 17.9676C19.1955 17.9887 19.1928 18.0097 19.1896 18.0306C19.1864 18.0515 19.1827 18.0724 19.1785 18.0931C19.1743 18.1139 19.1695 18.1345 19.1643 18.155C19.1591 18.1755 19.1534 18.1959 19.1472 18.2161C19.141 18.2364 19.1343 18.2565 19.1271 18.2764C19.1199 18.2963 19.1122 18.316 19.104 18.3356C19.0959 18.3551 19.0873 18.3744 19.0782 18.3935C19.0691 18.4126 19.0595 18.4315 19.0495 18.4502C19.0395 18.4688 19.029 18.4872 19.0181 18.5054C19.0072 18.5235 18.9959 18.5414 18.9841 18.559C18.9723 18.5766 18.9601 18.5939 18.9474 18.6108C18.9348 18.6278 18.9218 18.6445 18.9083 18.6609C18.8949 18.6772 18.8811 18.6932 18.8669 18.7089C18.8526 18.7246 18.838 18.7399 18.8231 18.7549C18.8081 18.7699 18.7928 18.7845 18.7771 18.7987C18.7614 18.8129 18.7454 18.8267 18.729 18.8402C18.7127 18.8536 18.696 18.8667 18.679 18.8793C18.662 18.8919 18.6447 18.9041 18.6271 18.9159C18.6095 18.9277 18.5917 18.939 18.5735 18.9499C18.5554 18.9609 18.537 18.9713 18.5184 18.9813C18.4997 18.9914 18.4808 19.0009 18.4617 19.01C18.4426 19.0191 18.4232 19.0277 18.4037 19.0359C18.3842 19.044 18.3644 19.0517 18.3445 19.0589C18.3246 19.0661 18.3045 19.0728 18.2843 19.079C18.2641 19.0852 18.2437 19.0909 18.2232 19.0962C18.2026 19.1014 18.182 19.1061 18.1613 19.1103C18.1405 19.1145 18.1197 19.1182 18.0988 19.1214C18.0778 19.1246 18.0568 19.1273 18.0358 19.1295C18.0147 19.1316 17.9936 19.1333 17.9725 19.1344C17.9514 19.1356 17.9302 19.1362 17.909 19.1363ZM20.8238 24.2499L12.0567 24.2499C12.0355 24.2499 12.0142 24.2494 11.9929 24.2484C11.9716 24.2473 11.9504 24.2458 11.9292 24.2437C11.908 24.2416 11.8869 24.239 11.8658 24.2359C11.8448 24.2328 11.8238 24.2291 11.8029 24.225C11.782 24.2208 11.7613 24.2161 11.7406 24.2109C11.7199 24.2058 11.6994 24.2001 11.6791 24.1939C11.6587 24.1877 11.6385 24.1811 11.6184 24.1739C11.5984 24.1667 11.5785 24.1591 11.5588 24.1509C11.5392 24.1428 11.5197 24.1341 11.5004 24.125C11.4812 24.1159 11.4622 24.1064 11.4434 24.0963C11.4246 24.0863 11.4061 24.0758 11.3878 24.0648C11.3696 24.0539 11.3516 24.0425 11.3339 24.0307C11.3162 24.0188 11.2988 24.0066 11.2817 23.9939C11.2646 23.9812 11.2478 23.9681 11.2313 23.9546C11.2149 23.9411 11.1987 23.9272 11.183 23.9129C11.1672 23.8986 11.1517 23.8839 11.1367 23.8689C11.1216 23.8538 11.107 23.8384 11.0927 23.8226C11.0784 23.8068 11.0645 23.7907 11.051 23.7742C11.0374 23.7578 11.0243 23.741 11.0117 23.7239C10.999 23.7068 10.9867 23.6894 10.9749 23.6717C10.9631 23.654 10.9517 23.636 10.9407 23.6177C10.9298 23.5995 10.9193 23.5809 10.9092 23.5622C10.8992 23.5434 10.8896 23.5244 10.8805 23.5051C10.8714 23.4858 10.8628 23.4664 10.8546 23.4467C10.8465 23.427 10.8388 23.4072 10.8317 23.3871C10.8245 23.3671 10.8178 23.3469 10.8116 23.3265C10.8054 23.3061 10.7998 23.2856 10.7946 23.2649C10.7894 23.2443 10.7848 23.2235 10.7806 23.2027C10.7764 23.1818 10.7728 23.1608 10.7697 23.1397C10.7666 23.1186 10.764 23.0975 10.7619 23.0764C10.7598 23.0552 10.7582 23.0339 10.7572 23.0126C10.7561 22.9914 10.7556 22.9701 10.7556 22.9488L10.7556 22.7045C10.7556 22.6832 10.7561 22.6619 10.7572 22.6407C10.7582 22.6194 10.7598 22.5982 10.7619 22.577C10.764 22.5558 10.7666 22.5346 10.7697 22.5136C10.7728 22.4925 10.7764 22.4715 10.7806 22.4507C10.7848 22.4298 10.7894 22.409 10.7946 22.3883C10.7998 22.3677 10.8054 22.3472 10.8116 22.3268C10.8178 22.3064 10.8245 22.2862 10.8317 22.2661C10.8388 22.2461 10.8465 22.2262 10.8546 22.2066C10.8628 22.1869 10.8714 22.1674 10.8805 22.1482C10.8896 22.1289 10.8992 22.1099 10.9092 22.0911C10.9193 22.0724 10.9298 22.0538 10.9407 22.0356C10.9517 22.0173 10.9631 21.9993 10.9749 21.9816C10.9867 21.9639 10.999 21.9465 11.0117 21.9294C11.0243 21.9123 11.0374 21.8955 11.051 21.879C11.0645 21.8626 11.0784 21.8465 11.0927 21.8307C11.107 21.8149 11.1216 21.7995 11.1367 21.7844C11.1518 21.7694 11.1672 21.7547 11.183 21.7404C11.1987 21.7261 11.2149 21.7122 11.2313 21.6987C11.2478 21.6852 11.2646 21.6721 11.2817 21.6594C11.2988 21.6467 11.3162 21.6345 11.3339 21.6226C11.3516 21.6108 11.3696 21.5994 11.3878 21.5885C11.4061 21.5775 11.4246 21.567 11.4434 21.557C11.4622 21.547 11.4812 21.5374 11.5004 21.5283C11.5197 21.5192 11.5392 21.5105 11.5588 21.5024C11.5785 21.4942 11.5984 21.4866 11.6184 21.4794C11.6385 21.4722 11.6587 21.4656 11.6791 21.4594C11.6994 21.4532 11.7199 21.4475 11.7406 21.4423C11.7613 21.4372 11.782 21.4325 11.8029 21.4284C11.8238 21.4242 11.8448 21.4205 11.8658 21.4174C11.8869 21.4143 11.908 21.4117 11.9292 21.4096C11.9504 21.4075 11.9716 21.406 11.9929 21.4049C12.0142 21.4039 12.0355 21.4033 12.0567 21.4033L20.8238 21.4033C20.8451 21.4033 20.8664 21.4039 20.8876 21.4049C20.9089 21.406 20.9301 21.4075 20.9513 21.4096C20.9725 21.4117 20.9936 21.4143 21.0147 21.4174C21.0358 21.4205 21.0567 21.4242 21.0776 21.4284C21.0985 21.4325 21.1193 21.4372 21.1399 21.4423C21.1606 21.4475 21.1811 21.4532 21.2015 21.4594C21.2219 21.4656 21.2421 21.4722 21.2621 21.4794C21.2822 21.4866 21.302 21.4942 21.3217 21.5024C21.3414 21.5105 21.3608 21.5192 21.3801 21.5283C21.3994 21.5374 21.4184 21.547 21.4371 21.557C21.4559 21.567 21.4744 21.5775 21.4927 21.5885C21.511 21.5994 21.5289 21.6108 21.5467 21.6226C21.5644 21.6345 21.5818 21.6467 21.5989 21.6594C21.616 21.6721 21.6327 21.6852 21.6492 21.6987C21.6657 21.7122 21.6818 21.7261 21.6976 21.7404C21.7134 21.7547 21.7288 21.7694 21.7438 21.7844C21.7589 21.7995 21.7736 21.8149 21.7879 21.8307C21.8022 21.8465 21.8161 21.8626 21.8296 21.879C21.8431 21.8955 21.8562 21.9123 21.8689 21.9294C21.8816 21.9465 21.8938 21.9639 21.9056 21.9816C21.9175 21.9993 21.9289 22.0173 21.9398 22.0356C21.9507 22.0538 21.9612 22.0724 21.9713 22.0911C21.9813 22.1099 21.9909 22.1289 22 22.1482C22.0091 22.1674 22.0177 22.1869 22.0259 22.2066C22.034 22.2262 22.0417 22.2461 22.0489 22.2661C22.056 22.2862 22.0627 22.3064 22.0689 22.3268C22.0751 22.3472 22.0807 22.3677 22.0859 22.3883C22.0911 22.409 22.0958 22.4298 22.0999 22.4507C22.1041 22.4715 22.1077 22.4925 22.1108 22.5136C22.114 22.5346 22.1166 22.5558 22.1186 22.577C22.1207 22.5982 22.1223 22.6194 22.1234 22.6407C22.1244 22.6619 22.1249 22.6832 22.1249 22.7045L22.1249 22.9488C22.1249 22.9701 22.1244 22.9914 22.1234 23.0126C22.1223 23.0339 22.1207 23.0552 22.1186 23.0764C22.1166 23.0975 22.114 23.1186 22.1108 23.1397C22.1077 23.1608 22.1041 23.1818 22.0999 23.2027C22.0958 23.2235 22.0911 23.2443 22.0859 23.2649C22.0807 23.2856 22.0751 23.3061 22.0689 23.3265C22.0627 23.3469 22.056 23.3671 22.0489 23.3871C22.0417 23.4072 22.034 23.427 22.0259 23.4467C22.0177 23.4664 22.0091 23.4858 22 23.5051C21.9909 23.5244 21.9813 23.5434 21.9713 23.5622C21.9612 23.5809 21.9507 23.5995 21.9398 23.6177C21.9289 23.636 21.9175 23.654 21.9056 23.6717C21.8938 23.6894 21.8816 23.7068 21.8689 23.7239C21.8562 23.741 21.8431 23.7578 21.8296 23.7742C21.8161 23.7907 21.8022 23.8068 21.7879 23.8226C21.7736 23.8384 21.7589 23.8538 21.7438 23.8689C21.7288 23.8839 21.7134 23.8986 21.6976 23.9129C21.6818 23.9272 21.6657 23.9411 21.6492 23.9546C21.6327 23.9681 21.616 23.9812 21.5989 23.9939C21.5818 24.0066 21.5644 24.0188 21.5467 24.0307C21.5289 24.0425 21.511 24.0539 21.4927 24.0648C21.4744 24.0758 21.4559 24.0863 21.4371 24.0963C21.4184 24.1064 21.3994 24.1159 21.3801 24.125C21.3608 24.1341 21.3414 24.1428 21.3217 24.1509C21.302 24.1591 21.2822 24.1667 21.2621 24.1739C21.2421 24.1811 21.2219 24.1877 21.2015 24.1939C21.1811 24.2001 21.1606 24.2058 21.1399 24.2109C21.1193 24.2161 21.0985 24.2208 21.0776 24.225C21.0567 24.2291 21.0358 24.2328 21.0147 24.2359C20.9936 24.239 20.9725 24.2416 20.9513 24.2437C20.9301 24.2458 20.9089 24.2473 20.8876 24.2484C20.8664 24.2494 20.8451 24.2499 20.8238 24.2499Z"   fill="#FAE2AA" >
</path>
</g>
<defs>
<clipPath id="clip-path-216_4666">
<path d="M7 29L29 29L29 7L7 7L7 29Z" fill="white"/>
</clipPath>
</defs>
</svg>
