<svg xmlns="http://www.w3.org/2000/svg" xmlns:xlink="http://www.w3.org/1999/xlink" width="12" height="12" viewBox="0 0 12 12" fill="none">
<rect  x="0" y="0" width="12" height="12" rx="4"    fill="url(#linear_fill_216_2910_0)" >
</rect>
<path     fill="#FFFFFF"  d="M7.34731 8.22402L4.47879 8.22402C4.47505 8.22402 4.47131 8.22392 4.46758 8.22374C4.46384 8.22356 4.46012 8.22329 4.4564 8.22292C4.45267 8.22256 4.44896 8.2221 4.44527 8.22156C4.44157 8.22101 4.43788 8.22038 4.43421 8.21965C4.43055 8.21892 4.4269 8.21811 4.42327 8.2172C4.41964 8.2163 4.41604 8.21531 4.41246 8.21423C4.40888 8.21315 4.40533 8.21198 4.4018 8.21073C4.39828 8.20947 4.3948 8.20813 4.39134 8.20671C4.38788 8.20528 4.38446 8.20377 4.38108 8.20219C4.3777 8.20059 4.37435 8.19892 4.37105 8.19717C4.36774 8.19542 4.36448 8.19358 4.36127 8.19166C4.35806 8.18975 4.35491 8.18777 4.35179 8.1857C4.34867 8.18363 4.34561 8.18149 4.3426 8.17927C4.33959 8.17705 4.33663 8.17476 4.33373 8.17239C4.33084 8.17003 4.328 8.1676 4.32522 8.16509C4.32244 8.16259 4.31972 8.16003 4.31707 8.1574C4.31441 8.15477 4.31183 8.15206 4.30931 8.14931C4.30678 8.14655 4.30433 8.14373 4.30195 8.14084C4.29956 8.13797 4.29725 8.13502 4.29501 8.13203C4.29277 8.12904 4.2906 8.126 4.28851 8.1229C4.28641 8.1198 4.2844 8.11666 4.28246 8.11345C4.28052 8.11026 4.27866 8.10702 4.27688 8.10372C4.27511 8.10043 4.27341 8.0971 4.27179 8.09373C4.27017 8.09036 4.26864 8.08695 4.26719 8.08351C4.26574 8.08006 4.26438 8.07658 4.26309 8.07307C4.26181 8.06956 4.26062 8.06602 4.25951 8.06245C4.25841 8.05888 4.25738 8.05527 4.25645 8.05166C4.25552 8.04803 4.25468 8.04439 4.25392 8.04073C4.25317 8.03707 4.25251 8.03339 4.25193 8.0297C4.25136 8.026 4.25088 8.02229 4.25048 8.01857C4.25009 8.01485 4.24979 8.01113 4.24958 8.0074C4.24937 8.00366 4.24924 7.99993 4.24922 7.99619C4.24922 7.87063 4.35252 7.76802 4.47878 7.76802L7.34731 7.76802C7.47356 7.76802 7.57687 7.87063 7.57687 7.99602C7.57684 7.99976 7.57673 8.00349 7.57652 8.00723C7.5763 8.01097 7.57601 8.0147 7.57562 8.01842C7.57523 8.02213 7.57474 8.02584 7.57417 8.02954C7.5736 8.03324 7.57295 8.03691 7.57219 8.04058C7.57144 8.04424 7.5706 8.04789 7.56967 8.05151C7.56874 8.05513 7.56772 8.05873 7.56662 8.06231C7.56551 8.06588 7.56431 8.06942 7.56304 8.07294C7.56176 8.07645 7.56039 8.07994 7.55895 8.08338C7.5575 8.08683 7.55596 8.09024 7.55434 8.09362C7.55273 8.09699 7.55103 8.10033 7.54926 8.10362C7.54748 8.10691 7.54562 8.11016 7.54368 8.11335C7.54174 8.11655 7.53973 8.1197 7.53764 8.12281C7.53555 8.12591 7.53338 8.12895 7.53114 8.13195C7.5289 8.13495 7.52659 8.13789 7.5242 8.14077C7.52182 8.14365 7.51937 8.14648 7.51684 8.14923C7.51432 8.15199 7.51173 8.1547 7.50908 8.15733C7.50643 8.15997 7.50371 8.16254 7.50093 8.16504C7.49815 8.16755 7.49531 8.16998 7.49241 8.17234C7.48952 8.17471 7.48656 8.177 7.48355 8.17922C7.48054 8.18144 7.47748 8.18359 7.47436 8.18566C7.47124 8.18773 7.46808 8.18972 7.46487 8.19163C7.46166 8.19356 7.4584 8.19539 7.45509 8.19714C7.45179 8.1989 7.44845 8.20057 7.44506 8.20216C7.44168 8.20376 7.43826 8.20527 7.4348 8.2067C7.43134 8.20812 7.42784 8.20946 7.42432 8.21071C7.4208 8.21197 7.41724 8.21313 7.41366 8.21422C7.41008 8.2153 7.40648 8.21629 7.40284 8.2172C7.39922 8.2181 7.39557 8.21891 7.3919 8.21964C7.38823 8.22038 7.38454 8.22101 7.38084 8.22156C7.37714 8.2221 7.37343 8.22256 7.36971 8.22292C7.36598 8.22329 7.36226 8.22356 7.35852 8.22374C7.35478 8.22392 7.35105 8.22402 7.34731 8.22402ZM8.30105 6.50245C8.23716 6.51016 8.17305 6.51404 8.1087 6.5141C8.09803 6.51411 8.08736 6.51402 8.0767 6.51381C8.06603 6.5136 8.05537 6.51329 8.04471 6.51286C8.03405 6.51244 8.0234 6.5119 8.01275 6.51125C8.0021 6.51061 7.99146 6.50986 7.98083 6.50899C7.9702 6.50813 7.95958 6.50716 7.94896 6.50609C7.93834 6.50501 7.92774 6.50382 7.91716 6.50252C7.90657 6.50123 7.89599 6.49982 7.88544 6.49831C7.87488 6.4968 7.86433 6.49517 7.85381 6.49345C7.84328 6.49172 7.83277 6.48988 7.82228 6.48794C7.81179 6.48599 7.80132 6.48395 7.79088 6.48179C7.78043 6.47963 7.77001 6.47737 7.75961 6.47499C7.74921 6.47263 7.73884 6.47015 7.72848 6.46756C7.71813 6.46498 7.70781 6.46229 7.69752 6.45949C7.68722 6.4567 7.67695 6.4538 7.66672 6.45079C7.65648 6.44778 7.64628 6.44467 7.63611 6.44146C7.62594 6.43825 7.6158 6.43493 7.6057 6.43151C7.59559 6.42809 7.58552 6.42456 7.57549 6.42094C7.56546 6.41731 7.55547 6.41358 7.54551 6.40975C7.53555 6.40592 7.52564 6.40199 7.51577 6.39795C7.50589 6.39391 7.49606 6.38977 7.48627 6.38554C7.47648 6.38131 7.46673 6.37697 7.45703 6.37253C7.44733 6.36809 7.43767 6.36356 7.42806 6.35893C7.41845 6.3543 7.40889 6.34956 7.39938 6.34474C7.38988 6.33991 7.38041 6.33498 7.371 6.32995C7.36159 6.32494 7.35223 6.31981 7.34292 6.31459C7.33362 6.30938 7.32436 6.30407 7.31516 6.29867C7.30597 6.29327 7.29683 6.28777 7.28774 6.28218C7.27866 6.27659 7.26963 6.27091 7.26066 6.26513C7.2517 6.25935 7.24279 6.25349 7.23394 6.24752C7.22509 6.24156 7.21631 6.23552 7.20758 6.22938C7.19885 6.22324 7.1902 6.21702 7.18159 6.2107C7.173 6.20439 7.16447 6.19799 7.156 6.19149C7.15343 6.1895 7.15082 6.18756 7.14817 6.18567C7.14552 6.18378 7.14284 6.18195 7.14011 6.18017C7.13738 6.1784 7.13462 6.17668 7.13182 6.17502C7.12902 6.17335 7.1262 6.17175 7.12334 6.1702C7.12047 6.16866 7.11758 6.16717 7.11466 6.16574C7.11173 6.16431 7.10877 6.16295 7.1058 6.16165C7.10282 6.16034 7.09981 6.1591 7.09678 6.15792C7.09375 6.15674 7.0907 6.15563 7.08762 6.15457C7.08454 6.15352 7.08144 6.15252 7.07832 6.15159C7.0752 6.15067 7.07206 6.14981 7.06891 6.14901C7.06576 6.14821 7.06259 6.14748 7.05941 6.14681C7.05622 6.14615 7.05302 6.14555 7.04981 6.14502C7.0466 6.14448 7.04338 6.14401 7.04016 6.14361C7.03693 6.14321 7.0337 6.14288 7.03045 6.14261C7.02721 6.14234 7.02396 6.14214 7.02071 6.142C7.01746 6.14188 7.01421 6.14181 7.01096 6.1418C7.0077 6.14181 7.00445 6.14188 7.0012 6.142C6.99795 6.14214 6.9947 6.14234 6.99146 6.14261C6.98822 6.14288 6.98498 6.14321 6.98176 6.14361C6.97853 6.14401 6.97531 6.14448 6.9721 6.14502C6.96889 6.14555 6.9657 6.14615 6.96251 6.14681C6.95933 6.14748 6.95616 6.14821 6.953 6.14901C6.94985 6.14981 6.94671 6.15067 6.94359 6.15159C6.94048 6.15252 6.93738 6.15352 6.9343 6.15457C6.93122 6.15563 6.92816 6.15674 6.92513 6.15792C6.9221 6.1591 6.91909 6.16034 6.91612 6.16165C6.91314 6.16295 6.91019 6.16431 6.90726 6.16574C6.90434 6.16717 6.90145 6.16866 6.89858 6.1702C6.89572 6.17175 6.89289 6.17335 6.89009 6.17502C6.8873 6.17668 6.88453 6.1784 6.8818 6.18017C6.87908 6.18195 6.87639 6.18378 6.87374 6.18567C6.87109 6.18756 6.86848 6.1895 6.86591 6.19149C6.85745 6.19799 6.84891 6.20439 6.84031 6.2107C6.83171 6.21702 6.82306 6.22325 6.81433 6.22939C6.8056 6.23552 6.79681 6.24157 6.78796 6.24753C6.77911 6.25349 6.7702 6.25937 6.76123 6.26514C6.75226 6.27092 6.74323 6.2766 6.73415 6.28219C6.72506 6.28778 6.71591 6.29328 6.70672 6.29869C6.69752 6.30409 6.68827 6.30941 6.67896 6.31462C6.66966 6.31984 6.66029 6.32495 6.65088 6.32998C6.64146 6.335 6.632 6.33993 6.62249 6.34476C6.61298 6.34959 6.60341 6.35432 6.59381 6.35895C6.58419 6.36359 6.57453 6.36812 6.56483 6.37256C6.55513 6.37699 6.54538 6.38133 6.53559 6.38556C6.5258 6.38981 6.51596 6.39395 6.50609 6.39798C6.49621 6.40201 6.4863 6.40594 6.47634 6.40977C6.46638 6.41361 6.45638 6.41734 6.44635 6.42096C6.43631 6.42459 6.42624 6.42812 6.41614 6.43154C6.40603 6.43496 6.39589 6.43828 6.38572 6.44149C6.37555 6.44471 6.36534 6.44782 6.3551 6.45082C6.34487 6.45383 6.3346 6.45673 6.32431 6.45952C6.31401 6.46231 6.30368 6.465 6.29333 6.46759C6.28298 6.47017 6.27259 6.47265 6.2622 6.47502C6.2518 6.47738 6.24137 6.47965 6.23092 6.48181C6.22048 6.48397 6.21 6.48602 6.19951 6.48796C6.18902 6.48991 6.17851 6.49174 6.16798 6.49347C6.15745 6.4952 6.14691 6.49681 6.13634 6.49833C6.12578 6.49984 6.1152 6.50124 6.10462 6.50254C6.09403 6.50384 6.08343 6.50502 6.07281 6.5061C6.0622 6.50718 6.05157 6.50815 6.04094 6.50901C6.0303 6.50987 6.01966 6.51063 6.00901 6.51127C5.99836 6.51191 5.9877 6.51244 5.97705 6.51287C5.96638 6.51329 5.95572 6.5136 5.94506 6.51381C5.93438 6.51402 5.92371 6.51411 5.91305 6.5141C5.90238 6.51411 5.8917 6.51402 5.88104 6.51381C5.87038 6.5136 5.85971 6.51329 5.84905 6.51287C5.83838 6.51244 5.82773 6.51191 5.81709 6.51127C5.80644 6.51063 5.79579 6.50987 5.78516 6.50901C5.77452 6.50815 5.7639 6.50718 5.75328 6.5061C5.74266 6.50502 5.73206 6.50384 5.72148 6.50254C5.71088 6.50124 5.7003 6.49984 5.68974 6.49833C5.67918 6.49682 5.66863 6.4952 5.65811 6.49347C5.64758 6.49174 5.63707 6.48991 5.62658 6.48796C5.61609 6.48602 5.60562 6.48397 5.59517 6.48181C5.58473 6.47965 5.5743 6.47738 5.56389 6.47502C5.55349 6.47265 5.54311 6.47017 5.53276 6.46759C5.52241 6.465 5.51209 6.46231 5.50179 6.45952C5.49149 6.45673 5.48123 6.45383 5.47098 6.45082C5.46075 6.44782 5.45055 6.44471 5.44037 6.44149C5.4302 6.43828 5.42006 6.43496 5.40995 6.43154C5.39984 6.42812 5.38977 6.42459 5.37974 6.42097C5.3697 6.41734 5.35971 6.41361 5.34975 6.40977C5.3398 6.40594 5.32988 6.40201 5.32 6.39798C5.31013 6.39395 5.30029 6.38981 5.2905 6.38556C5.28071 6.38133 5.27096 6.37699 5.26126 6.37256C5.25156 6.36812 5.2419 6.36359 5.23228 6.35895C5.22267 6.35432 5.21311 6.34959 5.2036 6.34476C5.19409 6.33993 5.18463 6.335 5.17521 6.32998C5.1658 6.32495 5.15644 6.31984 5.14713 6.31462C5.13782 6.30941 5.12856 6.30409 5.11937 6.29869C5.11017 6.29328 5.10102 6.28779 5.09194 6.2822C5.08285 6.2766 5.07382 6.27092 5.06485 6.26514C5.05588 6.25937 5.04698 6.25349 5.03813 6.24753C5.02927 6.24157 5.02048 6.23552 5.01176 6.22939C5.00303 6.22325 4.99438 6.21702 4.98577 6.2107C4.97717 6.20439 4.96864 6.19799 4.96017 6.19149C4.9576 6.1895 4.95498 6.18756 4.95233 6.18567C4.94968 6.18378 4.94698 6.18195 4.94426 6.18017C4.94153 6.1784 4.93877 6.17668 4.93596 6.17502C4.93316 6.17335 4.93033 6.17175 4.92746 6.1702C4.92459 6.16866 4.9217 6.16717 4.91877 6.16575C4.91584 6.16432 4.91288 6.16295 4.9099 6.16165C4.90691 6.16035 4.90391 6.15911 4.90088 6.15792C4.89784 6.15675 4.89478 6.15563 4.8917 6.15457C4.88862 6.15352 4.88552 6.15253 4.88239 6.1516C4.87927 6.15068 4.87613 6.14981 4.87298 6.14902C4.86981 6.14822 4.86664 6.14749 4.86345 6.14682C4.86027 6.14616 4.85706 6.14556 4.85385 6.14502C4.85064 6.14449 4.84742 6.14402 4.84419 6.14362C4.84096 6.14322 4.83772 6.14288 4.83447 6.14261C4.83123 6.14234 4.82798 6.14214 4.82473 6.14201C4.82147 6.14188 4.81821 6.14181 4.81495 6.14181C4.8117 6.14181 4.80845 6.14188 4.8052 6.14201C4.80194 6.14214 4.79869 6.14234 4.79545 6.14261C4.7922 6.14288 4.78895 6.14322 4.78573 6.14362C4.78249 6.14402 4.77927 6.14449 4.77606 6.14502C4.77285 6.14556 4.76965 6.14616 4.76646 6.14682C4.76327 6.14749 4.7601 6.14822 4.75695 6.14902C4.75378 6.14981 4.75064 6.15068 4.74752 6.1516C4.7444 6.15253 4.7413 6.15352 4.73822 6.15457C4.73513 6.15563 4.73208 6.15675 4.72904 6.15792C4.72601 6.15911 4.723 6.16035 4.72002 6.16165C4.71703 6.16295 4.71408 6.16432 4.71115 6.16575C4.70822 6.16717 4.70532 6.16866 4.70245 6.1702C4.69959 6.17175 4.69676 6.17335 4.69395 6.17502C4.69116 6.17668 4.68839 6.1784 4.68566 6.18017C4.68293 6.18195 4.68023 6.18378 4.67759 6.18567C4.67493 6.18756 4.67231 6.1895 4.66974 6.19149C4.6597 6.19919 4.64956 6.20676 4.63934 6.2142C4.62911 6.22165 4.61879 6.22897 4.60839 6.23617C4.59798 6.24336 4.58749 6.25042 4.57692 6.25737C4.56634 6.26431 4.55569 6.27113 4.54495 6.27781C4.5342 6.28449 4.52338 6.29104 4.51248 6.29746C4.50159 6.30388 4.49061 6.31017 4.47956 6.31633C4.4685 6.32248 4.45738 6.3285 4.44618 6.33438C4.43498 6.34027 4.42371 6.34602 4.41238 6.35163C4.40104 6.35724 4.38963 6.36272 4.37816 6.36806C4.3667 6.37339 4.35516 6.37859 4.34356 6.38364C4.33197 6.3887 4.32031 6.39361 4.30859 6.39838C4.29688 6.40316 4.28511 6.40779 4.27328 6.41227C4.26145 6.41677 4.24957 6.42111 4.23764 6.42531C4.22571 6.42952 4.21373 6.43356 4.2017 6.43748C4.18966 6.44138 4.17759 6.44515 4.16547 6.44877C4.15334 6.45238 4.14118 6.45585 4.12897 6.45917C4.11677 6.46249 4.10452 6.46567 4.09223 6.4687C4.07995 6.47172 4.06763 6.47459 4.05528 6.47732C4.04293 6.48005 4.03055 6.48262 4.01813 6.48505C4.00572 6.48748 3.99327 6.48975 3.9808 6.49188C3.96833 6.494 3.95584 6.49598 3.94331 6.4978C3.9308 6.49963 3.91826 6.50129 3.9057 6.50281C3.89314 6.50432 3.88056 6.50569 3.86797 6.5069C3.85538 6.50811 3.84277 6.50918 3.83016 6.51009C3.81754 6.51099 3.80491 6.51175 3.79227 6.51234C3.77964 6.51295 3.767 6.5134 3.75435 6.51369C3.7417 6.51399 3.72906 6.51413 3.71641 6.51412C3.70376 6.5141 3.69111 6.51394 3.67846 6.51362C3.66581 6.5133 3.65317 6.51283 3.64054 6.5122C3.62791 6.51158 3.61528 6.5108 3.60266 6.50987C3.59005 6.50894 3.57744 6.50786 3.56485 6.50662C3.55227 6.50538 3.53969 6.504 3.52713 6.50245C3.52314 6.50195 3.51913 6.50154 3.51512 6.50124C3.51109 6.50095 3.50707 6.50076 3.50305 6.50067C3.49902 6.50059 3.49499 6.5006 3.49097 6.50074C3.48695 6.50087 3.48292 6.5011 3.47891 6.50144C3.4749 6.50178 3.4709 6.50223 3.46691 6.50278C3.46292 6.50334 3.45894 6.50399 3.45499 6.50476C3.45103 6.50552 3.4471 6.50639 3.4432 6.50736C3.43928 6.50834 3.4354 6.50941 3.43156 6.51059C3.4277 6.51177 3.42388 6.51305 3.42009 6.51442C3.41631 6.51581 3.41257 6.51728 3.40886 6.51886C3.40516 6.52044 3.4015 6.52211 3.39788 6.52388C3.39426 6.52567 3.39069 6.52753 3.38717 6.52949C3.38366 6.53145 3.38019 6.5335 3.37678 6.53564C3.37337 6.53779 3.37002 6.54002 3.36673 6.54234C3.36344 6.54466 3.36021 6.54707 3.35705 6.54956C3.35389 6.55206 3.35079 6.55463 3.34776 6.55729C3.34473 6.55995 3.34178 6.56268 3.3389 6.56549C3.33601 6.56831 3.33321 6.5712 3.33048 6.57416C3.32775 6.57712 3.3251 6.58015 3.32253 6.58325C3.31996 6.58635 3.31747 6.58952 3.31507 6.59276C3.31267 6.59599 3.31036 6.59929 3.30813 6.60264C3.3059 6.60599 3.30377 6.60941 3.30172 6.61288C3.29967 6.61635 3.29772 6.61988 3.29586 6.62345C3.294 6.62702 3.29224 6.63064 3.29057 6.63431C3.2889 6.63797 3.28733 6.64168 3.28586 6.64542C3.28439 6.64917 3.28301 6.65296 3.28174 6.65678C3.28047 6.66061 3.2793 6.66446 3.27823 6.66834C3.27717 6.67223 3.27621 6.67614 3.27534 6.68007C3.27448 6.68401 3.27373 6.68796 3.27308 6.69194C3.27243 6.69592 3.27188 6.6999 3.27145 6.70391C3.27101 6.70791 3.27068 6.71192 3.27045 6.71595C3.27022 6.71997 3.2701 6.72399 3.27009 6.72802L3.27009 8.66837C3.27009 8.92349 3.47305 9.13045 3.72383 9.13045L8.10261 9.13045C8.35305 9.13045 8.556 8.9235 8.556 8.66837L8.556 6.72871C8.556 6.59271 8.4367 6.48524 8.30105 6.50262M9.04105 4.59219L8.53078 3.59967C8.52709 3.5925 8.52327 3.5854 8.51933 3.57837C8.51538 3.57133 8.51133 3.56437 8.50715 3.55747C8.50297 3.55058 8.49867 3.54375 8.49426 3.537C8.48984 3.53026 8.48532 3.52359 8.48068 3.51699C8.47604 3.5104 8.47129 3.50389 8.46642 3.49746C8.46156 3.49102 8.45659 3.48468 8.4515 3.47842C8.44642 3.47216 8.44123 3.46599 8.43594 3.45991C8.43065 3.45383 8.42525 3.44784 8.41975 3.44194C8.41426 3.43604 8.40866 3.43024 8.40296 3.42453C8.39727 3.41883 8.39147 3.41322 8.38558 3.40771C8.3797 3.40221 8.37371 3.3968 8.36763 3.3915C8.36156 3.3862 8.3554 3.381 8.34914 3.37591C8.34289 3.37082 8.33656 3.36584 8.33013 3.36096C8.3237 3.35609 8.3172 3.35133 8.31062 3.34667C8.30403 3.34202 8.29737 3.33749 8.29063 3.33307C8.28388 3.32864 8.27706 3.32434 8.27017 3.32015C8.26329 3.31596 8.25633 3.31189 8.2493 3.30794C8.24227 3.30399 8.23518 3.30016 8.22802 3.29646C8.22085 3.29275 8.21363 3.28916 8.20635 3.28571C8.19906 3.28224 8.19173 3.27891 8.18433 3.2757C8.17693 3.27249 8.16949 3.26941 8.16198 3.26646C8.15448 3.2635 8.14693 3.26068 8.13933 3.25799C8.13173 3.25529 8.12409 3.25273 8.1164 3.2503C8.10871 3.24787 8.10098 3.24556 8.09322 3.24339C8.08545 3.24123 8.07765 3.23919 8.06981 3.23729C8.06198 3.2354 8.05411 3.23363 8.04621 3.23199C8.03831 3.23036 8.03039 3.22887 8.02245 3.22751C8.0145 3.22615 8.00653 3.22493 7.99854 3.22385C7.99055 3.22276 7.98255 3.22181 7.97452 3.22099C7.9665 3.22018 7.95847 3.21951 7.95042 3.21897C7.94238 3.21843 7.93433 3.21804 7.92627 3.21778C7.91821 3.21752 7.91015 3.21739 7.90209 3.21741L3.924 3.21741C3.91594 3.21739 3.90788 3.21752 3.89982 3.21778C3.89177 3.21804 3.88371 3.21843 3.87566 3.21896C3.86763 3.2195 3.85959 3.22017 3.85157 3.22099C3.84355 3.2218 3.83555 3.22275 3.82756 3.22383C3.81956 3.22491 3.8116 3.22614 3.80366 3.22749C3.79571 3.22885 3.78779 3.23035 3.77989 3.23198C3.77199 3.2336 3.76413 3.23537 3.7563 3.23727C3.74846 3.23917 3.74066 3.2412 3.73289 3.24336C3.72513 3.24553 3.7174 3.24783 3.70971 3.25026C3.70203 3.25269 3.69439 3.25525 3.68679 3.25795C3.67919 3.26064 3.67164 3.26346 3.66413 3.26641C3.65663 3.26936 3.64919 3.27244 3.64179 3.27565C3.63439 3.27885 3.62705 3.28218 3.61977 3.28564C3.61248 3.2891 3.60527 3.29268 3.5981 3.29639C3.59094 3.3001 3.58384 3.30392 3.57682 3.30787C3.56979 3.31182 3.56283 3.31589 3.55595 3.32007C3.54906 3.32426 3.54223 3.32857 3.53549 3.33299C3.52875 3.33741 3.52209 3.34194 3.5155 3.34659C3.50891 3.35124 3.50241 3.356 3.49598 3.36087C3.48956 3.36574 3.48323 3.37073 3.47698 3.37581C3.47072 3.3809 3.46456 3.3861 3.45848 3.39139C3.45241 3.39669 3.44642 3.4021 3.44053 3.4076C3.43465 3.41311 3.42886 3.41871 3.42316 3.42442C3.41746 3.43012 3.41186 3.43592 3.40636 3.44182C3.40086 3.44771 3.39546 3.4537 3.39017 3.45978C3.38488 3.46586 3.37969 3.47203 3.3746 3.47828C3.36952 3.48454 3.36454 3.49089 3.35968 3.49731C3.35482 3.50374 3.35006 3.51025 3.34542 3.51685C3.34078 3.52343 3.33625 3.5301 3.33184 3.53685C3.32743 3.5436 3.32313 3.55042 3.31895 3.55731C3.31477 3.5642 3.31071 3.57117 3.30677 3.5782C3.30282 3.58523 3.299 3.59233 3.29531 3.59949L2.78505 4.59202C2.50174 5.23619 2.92105 5.99776 3.62713 6.05445C3.63915 6.05547 3.65118 6.05627 3.66322 6.05688C3.67526 6.0575 3.68731 6.05791 3.69936 6.05813C3.71141 6.05834 3.72347 6.05836 3.73552 6.05818C3.74758 6.058 3.75963 6.05763 3.77167 6.05705C3.78372 6.05647 3.79575 6.0557 3.80777 6.05472C3.81978 6.05375 3.83178 6.05258 3.84376 6.05121C3.85573 6.04985 3.86769 6.04829 3.87962 6.04652C3.89155 6.04477 3.90344 6.04281 3.91531 6.04066C3.92717 6.03851 3.93899 6.03617 3.95078 6.03362C3.96257 6.03108 3.97431 6.02834 3.986 6.02541C3.9977 6.02249 4.00934 6.01938 4.02094 6.01606C4.03253 6.01275 4.04407 6.00925 4.05555 6.00556C4.06702 6.00188 4.07844 5.998 4.08979 5.99393C4.10114 5.98987 4.11242 5.98562 4.12363 5.98118C4.13484 5.97675 4.14598 5.97213 4.15704 5.96733C4.1681 5.96252 4.17908 5.95754 4.18997 5.95238C4.20087 5.94721 4.21167 5.94188 4.2224 5.93635C4.23312 5.93084 4.24374 5.92514 4.25427 5.91927C4.2648 5.91341 4.27523 5.90737 4.28557 5.90116C4.29591 5.89495 4.30613 5.88856 4.31626 5.88202C4.32638 5.87547 4.3364 5.86876 4.3463 5.86188C4.3562 5.855 4.36599 5.84796 4.37566 5.84077C4.38534 5.83357 4.39488 5.82621 4.40431 5.8187C4.41374 5.81119 4.42305 5.80352 4.43223 5.7957C4.44141 5.78788 4.45045 5.77991 4.45937 5.7718C4.46828 5.76368 4.47706 5.75542 4.4857 5.74702C4.49435 5.73861 4.50285 5.73006 4.51121 5.72138C4.51958 5.7127 4.5278 5.70388 4.53587 5.69491C4.54394 5.68596 4.55186 5.67688 4.55963 5.66766C4.56741 5.65845 4.57503 5.6491 4.58249 5.63963C4.58996 5.63017 4.59727 5.62059 4.60442 5.61088C4.61157 5.60116 4.61856 5.59134 4.62539 5.58141C4.62802 5.57758 4.63077 5.57383 4.63363 5.57016C4.63649 5.56651 4.63946 5.56293 4.64253 5.55945C4.64561 5.55596 4.64879 5.55258 4.65207 5.54929C4.65535 5.546 4.65873 5.54281 4.6622 5.53972C4.66568 5.53664 4.66924 5.53366 4.6729 5.53078C4.67655 5.52792 4.68029 5.52516 4.68411 5.52251C4.68793 5.51987 4.69183 5.51734 4.69581 5.51493C4.69978 5.51252 4.70382 5.51024 4.70794 5.50808C4.71205 5.50591 4.71622 5.50388 4.72046 5.50196C4.7247 5.50005 4.72898 5.49827 4.73333 5.49662C4.73767 5.49497 4.74206 5.49345 4.7465 5.49207C4.75094 5.49069 4.75541 5.48944 4.75992 5.48832C4.76443 5.4872 4.76898 5.48623 4.77355 5.48539C4.77812 5.48455 4.7827 5.48384 4.78732 5.48329C4.79194 5.48273 4.79656 5.48231 4.8012 5.48202C4.80584 5.48174 4.81048 5.4816 4.81513 5.4816C4.81978 5.4816 4.82442 5.48174 4.82905 5.48202C4.8337 5.48231 4.83832 5.48273 4.84294 5.48329C4.84756 5.48384 4.85214 5.48455 4.85671 5.48539C4.86128 5.48623 4.86583 5.4872 4.87034 5.48832C4.87484 5.48944 4.87932 5.49069 4.88376 5.49207C4.8882 5.49345 4.89259 5.49497 4.89693 5.49662C4.90127 5.49827 4.90556 5.50005 4.9098 5.50196C4.91404 5.50388 4.91821 5.50591 4.92232 5.50808C4.92644 5.51024 4.93048 5.51252 4.93445 5.51493C4.93843 5.51734 4.94233 5.51987 4.94615 5.52251C4.94997 5.52516 4.95371 5.52792 4.95736 5.53078C4.96102 5.53366 4.96458 5.53664 4.96805 5.53972C4.97153 5.54281 4.97491 5.546 4.97819 5.54929C4.98147 5.55258 4.98465 5.55596 4.98773 5.55945C4.9908 5.56293 4.99377 5.56651 4.99663 5.57016C4.99949 5.57383 5.00223 5.57758 5.00487 5.58141C5.01116 5.59057 5.0176 5.59963 5.02417 5.60859C5.03074 5.61756 5.03745 5.62643 5.04429 5.63519C5.05113 5.64395 5.0581 5.65261 5.0652 5.66116C5.07231 5.66971 5.07954 5.67815 5.0869 5.68649C5.09425 5.69481 5.10174 5.70303 5.10934 5.71114C5.11695 5.71925 5.12468 5.72724 5.13253 5.7351C5.14038 5.74297 5.14835 5.75072 5.15644 5.75834C5.16452 5.76598 5.17272 5.77348 5.18104 5.78086C5.18935 5.78824 5.19777 5.79549 5.20631 5.80262C5.21484 5.80974 5.22348 5.81674 5.23222 5.82359C5.24097 5.83046 5.24982 5.83719 5.25877 5.84378C5.26771 5.85038 5.27676 5.85683 5.28591 5.86315C5.29506 5.86948 5.30429 5.87565 5.31363 5.88169C5.32296 5.88773 5.33238 5.89363 5.34189 5.89938C5.3514 5.90513 5.361 5.91074 5.37068 5.9162C5.38036 5.92167 5.39013 5.92699 5.39996 5.93215C5.40981 5.93731 5.41973 5.94233 5.42972 5.9472C5.43971 5.95206 5.44978 5.95677 5.45992 5.96133C5.47006 5.96589 5.48026 5.9703 5.49053 5.97455C5.5008 5.9788 5.51113 5.98289 5.52153 5.98683C5.53193 5.99077 5.54238 5.99455 5.55289 5.99817C5.5634 6.00178 5.57396 6.00524 5.58458 6.00855C5.5952 6.01184 5.60586 6.01499 5.61657 6.01796C5.62728 6.02094 5.63803 6.02375 5.64883 6.0264C5.65963 6.02905 5.67046 6.03154 5.68133 6.03386C5.6922 6.03618 5.7031 6.03834 5.71404 6.04033C5.72498 6.04232 5.73594 6.04414 5.74693 6.0458C5.75792 6.04746 5.76894 6.04895 5.77998 6.05027C5.79102 6.0516 5.80207 6.05275 5.81314 6.05374C5.82421 6.05474 5.8353 6.05556 5.84639 6.05621C5.85749 6.05686 5.86859 6.05734 5.8797 6.05766C5.89082 6.05798 5.90193 6.05813 5.91305 6.0581C5.92416 6.05813 5.93527 6.05798 5.94639 6.05766C5.9575 6.05734 5.9686 6.05686 5.9797 6.05621C5.9908 6.05556 6.00188 6.05474 6.01295 6.05374C6.02402 6.05275 6.03508 6.0516 6.04612 6.05027C6.05716 6.04895 6.06817 6.04746 6.07916 6.0458C6.09016 6.04414 6.10112 6.04232 6.11205 6.04033C6.12299 6.03834 6.1339 6.03618 6.14477 6.03386C6.15563 6.03154 6.16647 6.02905 6.17727 6.0264C6.18806 6.02375 6.19881 6.02094 6.20952 6.01796C6.22023 6.01499 6.23089 6.01184 6.24151 6.00855C6.25213 6.00524 6.26269 6.00178 6.2732 5.99817C6.2837 5.99455 6.29416 5.99077 6.30455 5.98683C6.31495 5.98289 6.32528 5.9788 6.33556 5.97455C6.34583 5.9703 6.35603 5.96589 6.36617 5.96133C6.37631 5.95677 6.38638 5.95206 6.39637 5.94719C6.40636 5.94232 6.41628 5.93731 6.42613 5.93214C6.43597 5.92698 6.44573 5.92167 6.45541 5.9162C6.46509 5.91074 6.4747 5.90513 6.4842 5.89938C6.49371 5.89363 6.50313 5.88773 6.51247 5.88169C6.5218 5.87565 6.53104 5.86947 6.54018 5.86315C6.54933 5.85683 6.55838 5.85038 6.56733 5.84378C6.57627 5.83719 6.58513 5.83046 6.59387 5.82359C6.60261 5.81674 6.61125 5.80974 6.61978 5.80262C6.62832 5.79549 6.63674 5.78824 6.64505 5.78086C6.65337 5.77348 6.66156 5.76598 6.66965 5.75834C6.67773 5.75072 6.6857 5.74297 6.69355 5.7351C6.70141 5.72724 6.70913 5.71924 6.71674 5.71113C6.72435 5.70303 6.73184 5.69481 6.7392 5.68649C6.74655 5.67815 6.75378 5.66971 6.76088 5.66116C6.76798 5.65261 6.77496 5.64395 6.7818 5.63519C6.78864 5.62643 6.79534 5.61756 6.80191 5.60859C6.80848 5.59963 6.81492 5.59057 6.82122 5.58141C6.82384 5.57756 6.82659 5.57381 6.82944 5.57013C6.83229 5.56645 6.83526 5.56287 6.83833 5.55938C6.8414 5.55588 6.84458 5.55248 6.84785 5.54917C6.85113 5.54587 6.85451 5.54267 6.85798 5.53957C6.86145 5.53647 6.86502 5.53349 6.86867 5.5306C6.87232 5.52772 6.87606 5.52495 6.87988 5.5223C6.8837 5.51964 6.88761 5.51711 6.89159 5.51469C6.89556 5.51227 6.8996 5.50997 6.90372 5.5078C6.90784 5.50563 6.91202 5.50358 6.91626 5.50167C6.9205 5.49974 6.92479 5.49795 6.92914 5.4963C6.93349 5.49464 6.93788 5.49312 6.94232 5.49173C6.94677 5.49034 6.95124 5.48908 6.95576 5.48796C6.96028 5.48684 6.96483 5.48586 6.96941 5.48502C6.97398 5.48417 6.97858 5.48347 6.9832 5.48291C6.98781 5.48234 6.99245 5.48192 6.99709 5.48163C7.00174 5.48135 7.00639 5.48121 7.01105 5.48121C7.0157 5.48121 7.02034 5.48135 7.02499 5.48163C7.02964 5.48192 7.03427 5.48234 7.03889 5.48291C7.04351 5.48347 7.04811 5.48417 7.05269 5.48502C7.05727 5.48586 7.06181 5.48684 7.06633 5.48796C7.07084 5.48908 7.07532 5.49034 7.07977 5.49173C7.08421 5.49312 7.0886 5.49464 7.09295 5.4963C7.09731 5.49795 7.10159 5.49974 7.10584 5.50167C7.11008 5.50358 7.11425 5.50563 7.11837 5.5078C7.12248 5.50997 7.12653 5.51227 7.13051 5.51469C7.13448 5.51711 7.13838 5.51964 7.1422 5.5223C7.14602 5.52495 7.14977 5.52772 7.15342 5.5306C7.15707 5.53349 7.16063 5.53647 7.16411 5.53957C7.16759 5.54267 7.17096 5.54587 7.17423 5.54917C7.17752 5.55248 7.18069 5.55588 7.18376 5.55938C7.18683 5.56287 7.1898 5.56645 7.19265 5.57013C7.1955 5.57381 7.19824 5.57756 7.20087 5.58141C7.2077 5.59134 7.21469 5.60116 7.22184 5.61087C7.22898 5.62058 7.23629 5.63017 7.24376 5.63963C7.25122 5.64909 7.25884 5.65843 7.26661 5.66764C7.27438 5.67686 7.28231 5.68595 7.29038 5.6949C7.29845 5.70385 7.30666 5.71267 7.31503 5.72135C7.32339 5.73004 7.33189 5.73859 7.34053 5.74699C7.34917 5.75539 7.35795 5.76365 7.36687 5.77177C7.37578 5.77988 7.38482 5.78785 7.394 5.79567C7.40318 5.80349 7.41248 5.81116 7.42191 5.81867C7.43134 5.82617 7.44088 5.83353 7.45055 5.84073C7.46023 5.84792 7.47002 5.85496 7.47991 5.86184C7.48981 5.86872 7.49983 5.87543 7.50995 5.88198C7.52007 5.88852 7.5303 5.89491 7.54063 5.90112C7.55096 5.90733 7.56139 5.91337 7.57192 5.91924C7.58245 5.9251 7.59308 5.9308 7.60379 5.93631C7.61451 5.94183 7.62531 5.94717 7.63621 5.95234C7.6471 5.9575 7.65808 5.96249 7.66913 5.96728C7.68019 5.97209 7.69132 5.9767 7.70253 5.98113C7.71374 5.98557 7.72502 5.98983 7.73638 5.99389C7.74773 5.99795 7.75913 6.00184 7.77061 6.00552C7.78209 6.00921 7.79363 6.01271 7.80521 6.01602C7.8168 6.01933 7.82845 6.02245 7.84014 6.02538C7.85184 6.02831 7.86357 6.03104 7.87536 6.03358C7.88714 6.03613 7.89896 6.03847 7.91083 6.04062C7.92269 6.04277 7.93458 6.04473 7.94651 6.04649C7.95844 6.04825 7.97038 6.04982 7.98236 6.05119C7.99434 6.05256 8.00634 6.05372 8.01835 6.0547C8.03037 6.05567 8.0424 6.05645 8.05444 6.05702C8.06648 6.0576 8.07852 6.05799 8.09058 6.05816C8.10263 6.05834 8.11468 6.05834 8.12673 6.05812C8.13879 6.05791 8.15084 6.05749 8.16288 6.05688C8.17491 6.05627 8.18694 6.05546 8.19895 6.05445C8.90505 5.99776 9.32417 5.23619 9.04105 4.59184">
</path>
<defs>
<linearGradient id="linear_fill_216_2910_0" x1="12" y1="12" x2="4.88328" y2="0" gradientUnits="userSpaceOnUse">
<stop offset="0" stop-color="#FCC630"  />
<stop offset="1" stop-color="#F57E33"  />
</linearGradient>
</defs>
</svg>
