<svg xmlns="http://www.w3.org/2000/svg" xmlns:xlink="http://www.w3.org/1999/xlink" width="20" height="20" viewBox="0 0 20 20" fill="none">
<circle cx="10" cy="10" r="10"   fill="#00C6C5" >
</circle>
<path d="M15.62 12.4471C15.62 13.0279 15.3877 13.1441 14.4971 13.1441C14.2648 10.8984 13.1419 9.8142 11.9803 9.27212C12.7547 8.22669 12.7934 6.71662 12.0577 5.59374C12.9483 5.3227 13.8776 5.94221 14.1099 6.91022C14.3035 7.76205 13.9163 8.69133 13.1419 9.0398C14.6132 9.427 15.62 10.8209 15.62 12.4471ZM10.8574 9.46573C12.2901 9.77548 13.955 10.7822 13.955 13.6862C13.955 14.4606 12.987 14.4606 9.85071 14.4606C6.67569 14.4606 5.74642 14.4606 5.74642 13.6862C5.74642 10.8209 7.41136 9.77548 8.84399 9.46573C7.72113 8.8462 7.33392 7.41357 7.87601 6.25198C8.41811 5.09038 9.77328 4.66446 10.8187 5.28398C11.8641 5.90351 12.2901 7.33613 11.7093 8.45901C11.5157 8.92365 11.2059 9.23341 10.8574 9.46573L10.8574 9.46573ZM7.64368 9.27212C6.48209 9.8142 5.35921 10.9371 5.1269 13.1441C4.23635 13.1441 4.00403 13.0279 4.00403 12.4471C3.92659 10.8209 4.97203 9.38828 6.44337 9.0398C5.59153 8.61388 5.20434 7.56845 5.59153 6.63917C5.94001 5.82605 6.75312 5.40014 7.56624 5.63246C6.83057 6.71662 6.86928 8.18797 7.64368 9.27212Z"   fill="#FFFFFF" >
</path>
</svg>
