<svg xmlns="http://www.w3.org/2000/svg" xmlns:xlink="http://www.w3.org/1999/xlink" width="12" height="12" viewBox="0 0 12 12" fill="none">
<rect  x="0" y="0" width="12" height="12" rx="4"    fill="url(#linear_fill_216_2899_0)" >
</rect>
<path d="M8.69315 8.94621C8.69315 9.09257 8.66388 9.22869 8.60534 9.35455C8.5468 9.48043 8.4663 9.59166 8.36384 9.68826C8.26139 9.78486 8.14137 9.86096 8.0038 9.91657C7.86622 9.97219 7.7184 10 7.56033 10L4.44287 10C4.28481 10 4.13699 9.97219 3.99941 9.91657C3.86183 9.86096 3.74182 9.78486 3.63936 9.68826C3.53691 9.59166 3.45641 9.48043 3.39787 9.35455C3.33933 9.22869 3.31006 9.09257 3.31006 8.94621L3.31006 3.06257C3.31006 2.91621 3.33933 2.77863 3.39787 2.64984C3.45641 2.52104 3.53691 2.40834 3.63936 2.31175C3.74182 2.21515 3.86183 2.13904 3.99941 2.08342C4.13699 2.02781 4.28481 2 4.44287 2L7.56033 2C7.7184 2 7.86622 2.02781 8.0038 2.08342C8.14137 2.13904 8.26139 2.21515 8.36384 2.31175C8.4663 2.40834 8.5468 2.52104 8.60534 2.64984C8.66388 2.77863 8.69315 2.91621 8.69315 3.06257L8.69315 8.94621ZM7.98185 3.48409L4.01258 3.48409L4.01258 8.51592L7.98185 8.51592L7.98185 3.48409ZM5.99721 8.7618C5.87427 8.7618 5.76743 8.80571 5.67669 8.89352C5.58594 8.98134 5.54058 9.08964 5.54058 9.21844C5.54058 9.34139 5.58594 9.44823 5.67669 9.53897C5.76743 9.62972 5.87427 9.67509 5.99721 9.67509C6.12601 9.67509 6.23431 9.62972 6.32213 9.53897C6.40995 9.44823 6.45386 9.34139 6.45386 9.21844C6.45386 9.08964 6.40995 8.98134 6.32213 8.89352C6.23431 8.80571 6.12601 8.7618 5.99721 8.7618ZM6.69974 2.73765C6.69974 2.69082 6.6851 2.65423 6.65583 2.62788C6.62656 2.60154 6.59435 2.58837 6.55923 2.58837L5.44397 2.58837C5.41471 2.58837 5.38397 2.60154 5.35177 2.62788C5.31957 2.65423 5.30347 2.69082 5.30347 2.73765C5.30347 2.78449 5.31811 2.82108 5.34737 2.84742C5.37665 2.87376 5.40885 2.88694 5.44397 2.88694L6.55923 2.88694C6.59435 2.88694 6.62656 2.87376 6.65583 2.84742C6.6851 2.82108 6.69974 2.78449 6.69974 2.73765Z"   fill="#FFFFFF" >
</path>
<defs>
<linearGradient id="linear_fill_216_2899_0" x1="3.91015805420706" y1="0" x2="12" y2="12" gradientUnits="userSpaceOnUse">
<stop offset="0" stop-color="#516DFC"  />
<stop offset="1" stop-color="#7FA0FB"  />
</linearGradient>
</defs>
</svg>
