<svg xmlns="http://www.w3.org/2000/svg" xmlns:xlink="http://www.w3.org/1999/xlink" width="12" height="12" viewBox="0 0 12 12" fill="none">
<rect  x="0" y="0" width="12" height="12" rx="4"    fill="url(#linear_fill_216_3016_0)" >
</rect>
<g  clip-path="url(#clip-path-216_3017)">
<path d="M10.0028 7.86671C10.0028 8.26671 9.84281 8.34671 9.22944 8.34671C9.06944 6.80004 8.2961 6.05338 7.4961 5.68004C8.02944 4.96004 8.0561 3.92004 7.54944 3.1467C8.16277 2.96004 8.80277 3.3867 8.96277 4.05338C9.0961 4.64004 8.82944 5.28004 8.2961 5.52004C9.30944 5.78671 10.0028 6.74671 10.0028 7.86671ZM6.72277 5.81338C7.70944 6.02671 8.8561 6.72004 8.8561 8.72004C8.8561 9.25338 8.18944 9.25338 6.02944 9.25338C3.84277 9.25338 3.20277 9.25338 3.20277 8.72004C3.20277 6.74671 4.34944 6.02671 5.3361 5.81338C4.56277 5.38671 4.2961 4.40004 4.66945 3.60004C5.04279 2.80004 5.97611 2.5067 6.69611 2.93338C7.41611 3.36005 7.70945 4.34671 7.30945 5.12004C7.17611 5.44004 6.96278 5.65338 6.72278 5.81338L6.72277 5.81338ZM4.50944 5.68004C3.70944 6.05338 2.9361 6.82671 2.77611 8.34671C2.16278 8.34671 2.00278 8.26671 2.00278 7.86671C1.94944 6.74671 2.66944 5.76004 3.68277 5.52004C3.0961 5.22671 2.82944 4.50671 3.0961 3.86671C3.3361 3.3067 3.8961 3.01338 4.4561 3.17338C3.94944 3.92004 3.9761 4.93338 4.50944 5.68004Z"   fill="#FFFFFF" >
</path>
</g>
<defs>
<linearGradient id="linear_fill_216_3016_0" x1="3.91015805420706" y1="0" x2="12" y2="12" gradientUnits="userSpaceOnUse">
<stop offset="0" stop-color="#7CE6C1"  />
<stop offset="1" stop-color="#3DD1A7"  />
</linearGradient>
<clipPath id="clip-path-216_3017">
<path d="M2 10L10 10L10 2L2 2L2 10Z" fill="white"/>
</clipPath>
</defs>
</svg>
