<svg xmlns="http://www.w3.org/2000/svg" xmlns:xlink="http://www.w3.org/1999/xlink" width="20" height="20" viewBox="0 0 20 20" fill="none">
<circle cx="10" cy="10" r="10"   fill="#FF513A" >
</circle>
<path d="M7.06347 8.03163L5.23647 8.03163C4.81297 8.03163 4.46997 8.37463 4.46997 8.79813L4.46997 14.8335C4.46997 15.257 4.81297 15.6 5.23647 15.6L7.06277 15.6C7.48697 15.6 7.82997 15.257 7.82997 14.8335L7.82997 8.79813C7.82997 8.37463 7.48697 8.03163 7.06347 8.03163ZM10.9114 4.40002L9.08858 4.40002C8.66367 4.40002 8.31997 4.74372 8.31997 5.16863L8.31997 14.8321C8.31997 15.2563 8.66367 15.6 9.08858 15.6L10.9121 15.6C11.3363 15.6 11.6807 15.2563 11.6807 14.8314L11.6807 5.16863C11.6807 5.15604 11.6803 5.14346 11.6797 5.1309C11.6791 5.11833 11.6782 5.10578 11.6769 5.09327C11.6757 5.08075 11.6741 5.06826 11.6722 5.05582C11.6704 5.04337 11.6682 5.03098 11.6658 5.01864C11.6633 5.0063 11.6605 4.99404 11.6575 4.98183C11.6544 4.96963 11.651 4.9575 11.6474 4.94546C11.6437 4.93342 11.6398 4.92148 11.6355 4.90964C11.6313 4.89779 11.6267 4.88606 11.6219 4.87444C11.6171 4.86282 11.612 4.85132 11.6066 4.83996C11.6012 4.82858 11.5955 4.81735 11.5896 4.80626C11.5837 4.79517 11.5775 4.78422 11.571 4.77343C11.5645 4.76264 11.5578 4.75202 11.5508 4.74156C11.5438 4.7311 11.5365 4.72082 11.529 4.71072C11.5215 4.70062 11.5138 4.69071 11.5058 4.68098C11.4978 4.67126 11.4896 4.66174 11.4811 4.65242C11.4727 4.6431 11.464 4.63399 11.4551 4.6251C11.4462 4.61621 11.4371 4.60754 11.4278 4.59909C11.4184 4.59065 11.4089 4.58243 11.3992 4.57445C11.3894 4.56648 11.3795 4.55874 11.3694 4.55125C11.3593 4.54376 11.349 4.53652 11.3386 4.52952C11.3281 4.52254 11.3175 4.51582 11.3067 4.50934C11.2959 4.50288 11.2849 4.49669 11.2738 4.49076C11.2627 4.48483 11.2515 4.47918 11.2401 4.4738C11.2287 4.46842 11.2172 4.46333 11.2056 4.45851C11.194 4.4537 11.1822 4.44917 11.1704 4.44494C11.1585 4.44071 11.1466 4.43677 11.1346 4.43311C11.1225 4.42946 11.1104 4.42611 11.0982 4.42305C11.086 4.41999 11.0737 4.41724 11.0614 4.41479C11.049 4.41234 11.0366 4.41019 11.0242 4.40834C11.0117 4.4065 10.9992 4.40496 10.9867 4.40373C10.9742 4.40249 10.9617 4.40156 10.9491 4.40095C10.9365 4.40033 10.924 4.40002 10.9114 4.40002ZM14.7635 10.0875L12.9372 10.0875C12.5137 10.0875 12.1707 10.4305 12.1707 10.854L12.1707 14.8328C12.1706 14.8454 12.1709 14.8579 12.1715 14.8705C12.1721 14.883 12.173 14.8955 12.1742 14.908C12.1754 14.9205 12.1769 14.9329 12.1787 14.9454C12.1805 14.9578 12.1826 14.9702 12.185 14.9825C12.1874 14.9948 12.1902 15.007 12.1932 15.0192C12.1962 15.0314 12.1995 15.0435 12.2032 15.0555C12.2068 15.0675 12.2107 15.0795 12.2149 15.0913C12.2191 15.1031 12.2236 15.1148 12.2284 15.1264C12.2331 15.138 12.2382 15.1495 12.2436 15.1609C12.2489 15.1722 12.2545 15.1834 12.2604 15.1945C12.2663 15.2056 12.2725 15.2165 12.2789 15.2273C12.2854 15.2381 12.2921 15.2487 12.299 15.2591C12.306 15.2696 12.3132 15.2798 12.3207 15.2899C12.3281 15.3 12.3358 15.3099 12.3438 15.3196C12.3517 15.3293 12.3599 15.3388 12.3683 15.3481C12.3768 15.3575 12.3854 15.3666 12.3943 15.3754C12.4031 15.3843 12.4122 15.393 12.4215 15.4014C12.4308 15.4098 12.4403 15.4181 12.45 15.426C12.4597 15.434 12.4696 15.4417 12.4797 15.4492C12.4897 15.4567 12.5 15.4639 12.5104 15.4709C12.5208 15.4779 12.5314 15.4846 12.5422 15.491C12.553 15.4975 12.5639 15.5037 12.5749 15.5096C12.586 15.5155 12.5972 15.5212 12.6086 15.5265C12.6199 15.5319 12.6314 15.537 12.643 15.5418C12.6546 15.5466 12.6663 15.5511 12.6781 15.5553C12.6899 15.5596 12.7018 15.5635 12.7138 15.5671C12.7259 15.5708 12.7379 15.5741 12.7501 15.5772C12.7623 15.5802 12.7745 15.5829 12.7868 15.5854C12.7992 15.5878 12.8115 15.59 12.8239 15.5918C12.8364 15.5936 12.8488 15.5952 12.8613 15.5964C12.8738 15.5976 12.8863 15.5985 12.8988 15.5991C12.9114 15.5997 12.9239 15.6 12.9365 15.6L14.7628 15.6C15.1863 15.6 15.5293 15.257 15.5293 14.8335L15.5293 10.854C15.5293 10.8415 15.529 10.829 15.5284 10.8164C15.5278 10.8039 15.5269 10.7914 15.5257 10.7789C15.5245 10.7664 15.523 10.754 15.5212 10.7415C15.5193 10.7291 15.5172 10.7168 15.5148 10.7045C15.5124 10.6922 15.5096 10.6799 15.5066 10.6678C15.5036 10.6556 15.5002 10.6435 15.4966 10.6315C15.493 10.6195 15.4891 10.6076 15.4849 10.5957C15.4807 10.5839 15.4762 10.5722 15.4714 10.5606C15.4666 10.549 15.4615 10.5376 15.4562 10.5262C15.4508 10.5149 15.4452 10.5037 15.4393 10.4926C15.4334 10.4815 15.4272 10.4706 15.4208 10.4599C15.4143 10.4491 15.4076 10.4385 15.4007 10.4281C15.3937 10.4176 15.3865 10.4074 15.379 10.3973C15.3716 10.3872 15.3639 10.3773 15.3559 10.3676C15.348 10.3579 15.3398 10.3484 15.3314 10.3391C15.3229 10.3298 15.3143 10.3207 15.3054 10.3119C15.2966 10.303 15.2875 10.2943 15.2782 10.2859C15.2689 10.2775 15.2594 10.2693 15.2497 10.2613C15.24 10.2534 15.2301 10.2457 15.2201 10.2382C15.21 10.2307 15.1997 10.2235 15.1893 10.2165C15.1789 10.2095 15.1683 10.2028 15.1575 10.1964C15.1468 10.1899 15.1359 10.1838 15.1248 10.1778C15.1137 10.1719 15.1025 10.1663 15.0912 10.1609C15.0799 10.1556 15.0684 10.1505 15.0568 10.1457C15.0452 10.1409 15.0335 10.1364 15.0217 10.1322C15.0099 10.1279 14.998 10.124 14.986 10.1204C14.974 10.1167 14.9619 10.1134 14.9497 10.1104C14.9375 10.1073 14.9253 10.1046 14.913 10.1021C14.9007 10.0997 14.8883 10.0976 14.8759 10.0957C14.8635 10.0939 14.8511 10.0924 14.8386 10.0911C14.8261 10.0899 14.8136 10.089 14.8011 10.0884C14.7885 10.0878 14.776 10.0875 14.7635 10.0875Z"   fill="#FFFFFF" >
</path>
</svg>
