<svg xmlns="http://www.w3.org/2000/svg" xmlns:xlink="http://www.w3.org/1999/xlink" width="20" height="20" viewBox="0 0 20 20" fill="none">
<circle cx="10" cy="10" r="10"   fill="#266EFF" >
</circle>
<path d="M10.0765 4.21948C6.86775 4.21948 4.26599 6.82124 4.26599 10.03C4.26599 13.2388 6.86775 15.8406 10.0765 15.8406C13.2853 15.8406 15.8871 13.2388 15.8871 10.03C15.8871 6.82124 13.2867 4.21948 10.0765 4.21948ZM13.5082 11.888C13.4945 11.9072 13.4781 11.925 13.459 11.9386L11.0527 13.7187C10.9529 13.7925 10.8121 13.772 10.7383 13.6722C10.7095 13.6339 10.6945 13.5861 10.6945 13.5382L10.6945 12.3925L8.72849 12.3925C7.32712 12.4007 6.56697 11.7076 6.44529 10.3144C6.56697 10.4416 7.0988 11.1935 8.72849 11.1935C9.81404 11.1935 10.4703 11.1812 10.6945 11.1566L10.6945 10.0574C10.6945 9.93296 10.7957 9.83315 10.9187 9.83315C10.9652 9.83315 11.0103 9.84819 11.0486 9.87417L13.4535 11.5736C13.556 11.646 13.5793 11.7869 13.5082 11.888ZM11.426 8.86382C10.3404 8.86382 9.68416 8.87612 9.45994 8.90073L9.45994 9.99995C9.45994 10.1244 9.35876 10.2242 9.23572 10.2242C9.18923 10.2242 9.14412 10.2091 9.10583 10.1832L6.69958 8.48511C6.59841 8.41401 6.5738 8.27319 6.64626 8.17202C6.65994 8.15288 6.67634 8.13511 6.69548 8.12144L9.10037 6.34136C9.20017 6.26753 9.34099 6.28804 9.41482 6.38784C9.44353 6.42612 9.45857 6.47397 9.45857 6.52183L9.45857 7.66753L11.4246 7.66753C12.826 7.65933 13.5861 8.35249 13.7078 9.74565C13.5861 9.61577 13.0543 8.86382 11.426 8.86382Z"   fill="#FFFFFF" >
</path>
</svg>
