<svg xmlns="http://www.w3.org/2000/svg" xmlns:xlink="http://www.w3.org/1999/xlink" width="12" height="12" viewBox="0 0 12 12" fill="none">
<rect  x="0" y="0" width="12" height="12" rx="4"    fill="url(#linear_fill_216_2831_0)" >
</rect>
<path d="M6 2C3.792 2 2 3.792 2 6C2 8.208 3.792 10 6 10C8.208 10 10 8.208 10 6C10 3.792 8.208 2 6 2ZM7.5832 6.4856C7.7916 6.4856 7.9168 6.652 7.9168 6.8188C7.9168 6.9856 7.75 7.152 7.5832 7.152L6.3332 7.152L6.3332 8.402C6.3332 8.6104 6.1668 8.7356 6 8.7356C5.8332 8.7356 5.6668 8.5688 5.6668 8.402L5.6668 7.152L4.4168 7.152C4.41132 7.15208 4.40585 7.15202 4.40037 7.15183C4.3949 7.15163 4.38944 7.1513 4.38398 7.15084C4.37852 7.15037 4.37308 7.14977 4.36765 7.14903C4.36222 7.1483 4.35681 7.14742 4.35143 7.14641C4.34605 7.14541 4.34069 7.14426 4.33536 7.14298C4.33004 7.14171 4.32474 7.1403 4.31948 7.13876C4.31423 7.13722 4.30902 7.13555 4.30384 7.13375C4.29867 7.13195 4.29355 7.13002 4.28847 7.12796C4.28339 7.12591 4.27837 7.12372 4.27341 7.12141C4.26844 7.1191 4.26353 7.11667 4.25868 7.11412C4.25384 7.11156 4.24905 7.10889 4.24434 7.1061C4.23963 7.1033 4.23499 7.1004 4.23043 7.09737C4.22586 7.09435 4.22137 7.09121 4.21696 7.08796C4.21255 7.08471 4.20823 7.08135 4.20398 7.07789C4.19974 7.07443 4.19559 7.07086 4.19152 7.06719C4.18746 7.06352 4.18349 7.05974 4.17961 7.05587C4.17573 7.052 4.17196 7.04803 4.16828 7.04398C4.1646 7.03991 4.16103 7.03577 4.15756 7.03153C4.15409 7.02729 4.15073 7.02297 4.14748 7.01856C4.14422 7.01416 4.14108 7.00967 4.13805 7.00511C4.13502 7.00054 4.13211 6.99591 4.1293 6.9912C4.12651 6.98648 4.12383 6.98171 4.12127 6.97687C4.11871 6.97202 4.11627 6.96712 4.11396 6.96216C4.11165 6.9572 4.10946 6.95217 4.10739 6.9471C4.10533 6.94203 4.10339 6.93691 4.10159 6.93173C4.09978 6.92656 4.0981 6.92135 4.09655 6.91609C4.09501 6.91084 4.09359 6.90555 4.09231 6.90023C4.09103 6.8949 4.08988 6.88955 4.08887 6.88416C4.08785 6.87878 4.08697 6.87337 4.08623 6.86795C4.08548 6.86252 4.08488 6.85708 4.0844 6.85162C4.08392 6.84616 4.08359 6.8407 4.08339 6.83523C4.08319 6.82975 4.08313 6.82427 4.0832 6.8188C4.0832 6.652 4.25 6.4856 4.4168 6.4856L5.6668 6.4856L5.6668 5.7356L4.4168 5.7356C4.41132 5.73568 4.40584 5.73563 4.40036 5.73543C4.39488 5.73523 4.38941 5.73491 4.38395 5.73444C4.37849 5.73398 4.37304 5.73338 4.36761 5.73263C4.36218 5.73189 4.35677 5.73102 4.35138 5.73001C4.34599 5.729 4.34063 5.72785 4.3353 5.72657C4.32997 5.7253 4.32467 5.72388 4.31941 5.72234C4.31416 5.7208 4.30894 5.71912 4.30376 5.71732C4.29858 5.71552 4.29345 5.71359 4.28837 5.71152C4.2833 5.70946 4.27827 5.70727 4.2733 5.70497C4.26833 5.70266 4.26342 5.70022 4.25857 5.69766C4.25372 5.69511 4.24894 5.69243 4.24423 5.68963C4.23952 5.68684 4.23487 5.68392 4.2303 5.68089C4.22573 5.67787 4.22124 5.67473 4.21683 5.67147C4.21241 5.66821 4.20809 5.66485 4.20384 5.66138C4.1996 5.65791 4.19545 5.65434 4.19138 5.65066C4.18731 5.64698 4.18334 5.64321 4.17947 5.63934C4.17559 5.63545 4.17181 5.63148 4.16813 5.62742C4.16445 5.62335 4.16088 5.61919 4.15741 5.61495C4.15394 5.61071 4.15059 5.60638 4.14733 5.60197C4.14408 5.59755 4.14094 5.59307 4.13791 5.5885C4.13488 5.58393 4.13197 5.57929 4.12917 5.57458C4.12638 5.56986 4.1237 5.56508 4.12114 5.56023C4.11859 5.55538 4.11615 5.55047 4.11384 5.5455C4.11152 5.54053 4.10934 5.53551 4.10727 5.53042C4.10522 5.52534 4.10328 5.52022 4.10148 5.51504C4.09967 5.50986 4.098 5.50464 4.09646 5.49938C4.09491 5.49412 4.0935 5.48883 4.09223 5.4835C4.09095 5.47816 4.0898 5.47281 4.0888 5.46742C4.08779 5.46203 4.08691 5.45662 4.08617 5.45119C4.08543 5.44576 4.08483 5.44031 4.08436 5.43485C4.08389 5.42939 4.08356 5.42391 4.08337 5.41844C4.08317 5.41296 4.08312 5.40748 4.0832 5.402C4.0832 5.2356 4.25 5.0688 4.4168 5.0688L5.1668 5.0688L4.2916 4.1936C4.1668 4.0688 4.1668 3.8188 4.2916 3.6936C4.4168 3.5688 4.6668 3.5688 4.7916 3.6936L6 4.902L7.25 3.694C7.3748 3.5688 7.6252 3.5688 7.75 3.694C7.8748 3.8188 7.8748 4.0688 7.75 4.194L6.8748 5.0688L7.6252 5.0688C7.8332 5.0688 7.9584 5.2356 7.9584 5.402C7.9584 5.5688 7.7916 5.7356 7.5832 5.7356L6.3332 5.7356L6.3332 6.4856L7.5832 6.4856Z"   fill="#FFFFFF" >
</path>
<defs>
<linearGradient id="linear_fill_216_2831_0" x1="3.91015805420706" y1="0" x2="12" y2="12" gradientUnits="userSpaceOnUse">
<stop offset="0" stop-color="#69AAFF"  />
<stop offset="1" stop-color="#1276FF"  />
</linearGradient>
</defs>
</svg>
